<?xml version="1.0" standalone="no"?>
<!DOCTYPE svg PUBLIC "-//W3C//DTD SVG 20010904//EN"
 "http://www.w3.org/TR/2001/REC-SVG-20010904/DTD/svg10.dtd">
<svg version="1.0" xmlns="http://www.w3.org/2000/svg"
 width="1024.000000pt" height="1024.000000pt" viewBox="0 0 1024.000000 1024.000000"
 preserveAspectRatio="xMidYMid meet">

<g transform="translate(0.000000,1024.000000) scale(0.100000,-0.100000)"
fill="#000000" stroke="none">
<path d="M5180 10181 c-108 -16 -280 -91 -280 -123 0 -5 -4 -7 -8 -4 -11 6
-34 -21 -65 -76 -74 -131 -95 -157 -109 -135 -4 7 -11 7 -22 -2 -10 -8 -51
-15 -105 -17 -49 -1 -104 -9 -123 -17 -63 -26 -208 -128 -246 -173 -61 -72
-151 -261 -167 -352 -8 -42 -21 -94 -29 -114 -19 -45 -22 -123 -4 -112 8 5 9
2 5 -10 -4 -9 0 -49 9 -89 8 -40 17 -110 18 -157 7 -175 77 -470 111 -470 7 0
40 -18 73 -40 60 -39 62 -41 62 -83 0 -53 40 -214 70 -279 11 -27 22 -48 23
-48 1 0 2 39 3 88 0 70 8 112 38 216 43 150 43 150 109 235 27 36 53 76 59 90
11 31 15 152 4 169 -4 7 -4 16 -1 22 3 5 8 19 10 30 2 11 11 27 19 36 18 17
21 28 6 19 -5 -3 -10 -1 -10 5 0 5 21 20 48 33 26 12 49 25 50 30 2 4 22 7 45
7 31 0 38 3 27 10 -12 8 -9 10 13 10 15 0 27 5 27 10 0 6 12 10 28 10 22 0 24
2 12 11 -12 8 -9 10 12 6 15 -2 25 0 22 4 -3 5 10 6 28 3 32 -5 32 -5 13 11
-19 17 -19 17 14 11 28 -5 32 -4 22 8 -10 12 -8 13 10 9 17 -5 20 -3 14 8 -8
12 -6 12 8 0 9 -7 14 -18 10 -24 -3 -6 -1 -7 6 -3 6 4 8 12 5 18 -4 7 -2 8 5
4 7 -5 23 -5 36 -2 21 5 23 10 15 31 -6 15 -6 26 1 30 5 4 9 3 8 -2 -3 -12 18
-60 30 -68 7 -4 8 0 4 11 -5 12 -3 15 6 9 8 -4 16 -2 21 5 5 8 11 1 18 -20 10
-27 15 -30 34 -24 13 3 26 12 30 18 4 6 11 1 17 -14 5 -14 10 -18 11 -10 1 9
5 6 11 -8 5 -13 13 -20 19 -17 5 3 10 1 10 -5 0 -6 4 -9 9 -5 6 3 8 -4 6 -15
-4 -19 0 -21 23 -16 15 3 72 10 127 15 108 11 189 -1 224 -33 10 -9 23 -16 29
-16 22 0 159 -145 170 -180 12 -37 42 -216 42 -250 0 -17 -7 -20 -43 -20 -24
0 -47 -3 -51 -7 -3 -4 -12 -8 -19 -9 -7 -1 -42 -14 -78 -28 -37 -14 -69 -22
-73 -19 -3 4 -6 0 -6 -7 0 -7 -3 -11 -6 -8 -4 5 -46 -4 -119 -26 -33 -10 -54
-23 -87 -55 l-38 -36 0 -96 c0 -95 0 -97 25 -101 30 -6 31 -6 40 57 6 46 38
95 52 82 3 -3 19 7 36 23 17 16 49 33 71 39 37 9 39 8 22 -5 -11 -8 -24 -14
-28 -14 -17 0 -70 -46 -84 -72 -20 -38 -18 -68 4 -68 22 0 53 32 77 79 l17 35
13 -31 c20 -48 55 -66 112 -59 97 12 95 13 113 -19 13 -24 24 -30 51 -31 90
-2 107 -5 126 -21 58 -53 65 -96 33 -203 -23 -77 -26 -105 -16 -140 6 -21 5
-22 -4 -7 -6 9 -15 15 -20 12 -6 -3 2 -24 17 -45 l26 -40 39 52 c51 69 85 133
125 238 40 107 42 92 4 -33 -36 -117 -50 -145 -111 -223 l-48 -61 15 -69 c10
-45 13 -93 9 -139 -6 -65 -6 -69 9 -48 9 12 24 55 34 95 11 42 20 64 23 53 2
-11 12 19 22 67 18 82 20 87 48 94 43 9 81 54 102 120 10 32 35 81 55 108 21
28 69 107 106 176 58 105 70 134 73 182 5 71 -9 109 -55 147 l-34 28 21 99
c12 54 24 115 27 134 3 19 11 38 17 42 7 5 6 19 -5 50 -10 29 -13 56 -8 83 4
22 5 61 2 88 -5 43 -4 47 12 41 17 -7 18 0 13 89 -4 79 -10 106 -35 159 -17
35 -36 90 -43 123 -49 243 -139 400 -318 557 -258 226 -341 269 -667 344 -128
29 -269 39 -365 25z m-33 -277 c-3 -3 -12 -4 -19 -1 -8 3 -5 6 6 6 11 1 17 -2
13 -5z m-622 -124 c3 -5 1 -10 -4 -10 -6 0 -11 5 -11 10 0 6 2 10 4 10 3 0 8
-4 11 -10z m1245 -1580 c0 -5 -10 -10 -22 -10 -19 0 -20 2 -8 10 19 13 30 13
30 0z m119 -11 c13 -8 11 -9 -9 -5 -14 3 -42 6 -63 6 -25 0 -36 4 -31 11 7 13
78 4 103 -12z m-162 -51 c-3 -7 -5 -2 -5 12 0 14 2 19 5 13 2 -7 2 -19 0 -25z
m634 -39 c-5 -13 -10 -19 -10 -12 -1 15 10 45 15 40 3 -2 0 -15 -5 -28z m-510
-6 c-8 -15 -10 -15 -11 -2 0 17 10 32 18 25 2 -3 -1 -13 -7 -23z m483 -97 c-3
-15 -8 -25 -11 -23 -2 3 -1 17 3 31 3 15 8 25 11 23 2 -3 1 -17 -3 -31z"/>
<path d="M4789 8366 c-5 -5 -68 -16 -126 -23 -24 -3 -40 -9 -37 -14 7 -12 71
-11 79 1 3 6 11 10 18 10 16 0 -24 -27 -48 -32 -14 -3 -7 -7 20 -12 22 -4 56
-13 75 -21 40 -15 119 -35 170 -41 19 -2 79 -11 132 -20 109 -17 151 -10 107
19 -45 29 -239 87 -290 87 -35 0 -48 3 -43 11 5 8 -4 10 -30 7 -36 -4 -52 7
-18 14 11 2 13 6 6 10 -6 4 -13 6 -15 4z"/>
<path d="M4086 8214 c-14 -15 -26 -35 -26 -46 0 -23 23 -70 44 -87 12 -10 16
-6 21 33 8 50 33 83 72 92 25 7 25 8 8 20 -32 24 -89 17 -119 -12z"/>
<path d="M4818 8180 c-81 -13 -130 -35 -126 -57 6 -27 61 -21 99 11 38 32 49
33 49 2 0 -14 12 -38 26 -55 46 -55 112 -40 152 34 9 16 11 17 12 4 0 -9 7
-22 15 -29 11 -9 12 -17 4 -31 -8 -15 -6 -19 6 -19 9 0 14 4 11 9 -3 4 6 6 19
3 33 -6 31 5 -5 55 -51 69 -135 93 -262 73z m102 -32 c0 -19 -2 -20 -10 -8
-13 19 -13 30 0 30 6 0 10 -10 10 -22z"/>
<path d="M4291 8067 c-2 -47 104 -383 134 -423 24 -32 -8 89 -50 186 -20 47
-47 123 -60 170 -13 47 -24 77 -24 67z"/>
<path d="M6030 7675 c0 -10 29 -24 34 -17 3 6 -3 12 -14 15 -11 3 -20 4 -20 2z"/>
<path d="M6137 7233 c-7 -12 -20 -79 -14 -73 6 6 27 80 22 80 -2 0 -6 -3 -8
-7z"/>
<path d="M6110 7139 c0 -28 -59 -136 -111 -204 -30 -39 -76 -104 -104 -145
-27 -41 -83 -109 -125 -151 -63 -64 -94 -85 -189 -133 -63 -31 -141 -64 -174
-73 l-59 -17 6 -60 c6 -58 9 -63 61 -112 30 -28 55 -57 56 -65 0 -8 2 -27 3
-44 4 -57 -49 -155 -75 -139 -8 4 -9 3 -5 -4 4 -7 1 -12 -6 -13 -7 0 -4 -4 7
-9 20 -8 14 -11 -45 -25 -3 -1 -18 -7 -33 -13 -39 -16 -39 -16 -12 14 14 15
25 31 25 36 0 5 5 6 11 3 6 -5 4 -12 -8 -22 -17 -13 -17 -13 3 -4 12 6 23 8
26 6 3 -3 5 2 5 10 0 8 -4 12 -8 9 -4 -2 -10 0 -13 5 -16 26 -86 -33 -86 -72
0 -4 -13 -27 -28 -50 -16 -23 -71 -122 -123 -220 -59 -112 -119 -209 -161
-262 -38 -47 -63 -87 -57 -91 11 -6 97 78 144 141 47 63 61 69 71 30 3 -14 9
-25 13 -25 10 0 7 -39 -8 -89 -7 -23 -9 -46 -5 -50 4 -3 9 0 11 7 3 6 10 9 16
6 9 -5 9 -4 0 6 -8 9 -9 20 -2 37 5 14 8 50 7 81 -1 32 1 101 4 154 5 87 9
103 43 165 55 100 122 166 171 166 13 0 24 3 24 7 0 5 16 14 35 20 19 6 35 16
35 21 0 5 3 8 8 7 4 -1 30 10 59 25 56 29 79 35 50 13 -10 -8 -14 -17 -8 -20
5 -3 17 1 25 10 9 9 16 11 16 4 0 -6 4 -8 10 -5 6 3 7 -1 4 -9 -3 -9 -1 -16 5
-16 6 0 11 -9 11 -20 0 -11 -7 -20 -15 -20 -8 0 -15 -5 -15 -11 0 -5 5 -7 12
-3 7 4 8 3 4 -4 -4 -6 -14 -8 -23 -5 -11 4 -14 3 -9 -5 4 -7 2 -12 -3 -12 -6
0 -11 -7 -11 -15 0 -8 -5 -15 -11 -15 -5 0 -7 -4 -4 -10 3 -5 1 -10 -5 -10 -6
0 -9 -4 -5 -9 3 -5 16 -8 30 -5 13 2 26 0 30 -6 3 -6 -1 -7 -9 -4 -19 7 -23
-31 -5 -41 6 -4 8 -13 6 -19 -4 -9 2 -11 18 -8 l24 4 -27 25 -27 25 27 -16
c15 -9 34 -16 43 -16 8 0 16 -4 16 -10 1 -5 2 -14 3 -19 0 -5 5 -13 10 -18 5
-5 6 -3 2 5 -4 7 -1 15 7 18 8 3 18 20 21 37 5 25 9 29 16 17 5 -8 9 -22 9
-30 0 -10 -3 -9 -10 5 -7 16 -8 13 -4 -12 3 -24 1 -33 -9 -33 -8 0 -16 -9 -19
-20 -3 -11 -1 -20 4 -20 5 0 9 7 9 16 0 8 5 12 10 9 7 -4 4 -17 -7 -35 -9 -16
-21 -27 -25 -24 -5 3 -6 -7 -2 -22 5 -21 4 -25 -6 -19 -8 5 -11 4 -6 -3 3 -6
15 -9 26 -7 11 2 22 -1 25 -6 4 -5 11 -6 17 -3 6 4 4 -3 -5 -17 -20 -27 -22
-43 -5 -33 8 5 9 2 5 -10 -5 -12 -3 -16 5 -13 7 2 12 10 10 17 -2 8 4 11 17 7
12 -3 22 1 25 9 3 8 12 14 21 14 8 0 15 5 15 11 0 6 -6 9 -14 6 -20 -8 -8 32
18 58 l20 20 -18 -29 c-13 -20 -15 -31 -7 -39 15 -15 27 0 36 41 4 20 3 32 -4
32 -6 0 -11 5 -11 11 0 6 5 7 13 2 6 -4 16 -8 21 -8 5 0 11 -7 13 -15 4 -13 3
-13 -6 0 -9 12 -11 11 -11 -9 0 -23 1 -24 20 -6 15 14 20 15 21 4 0 -8 5 -4
11 9 6 12 16 22 23 22 6 0 19 15 29 33 9 17 14 23 11 12 -5 -19 -4 -19 9 -2
14 17 32 24 22 8 -4 -5 7 -12 24 -16 17 -4 28 -11 25 -15 -3 -5 -13 -7 -23 -4
-13 4 -14 3 -4 -4 11 -7 9 -16 -7 -43 -12 -19 -21 -38 -21 -44 0 -5 9 4 19 22
36 58 107 140 115 132 10 -10 -5 -39 -20 -39 -8 0 -14 -5 -14 -11 0 -5 5 -7
10 -4 6 3 10 2 10 -4 0 -10 -47 -92 -82 -143 -10 -15 -18 -30 -18 -34 0 -10
-150 -231 -175 -258 -23 -24 -23 -36 0 -36 11 0 54 66 214 325 48 79 120 184
141 208 4 5 11 3 15 -4 6 -8 4 -10 -5 -4 -10 6 -12 4 -7 -9 4 -10 3 -15 -3
-11 -6 4 -7 -1 -3 -11 5 -15 7 -15 15 0 5 9 14 16 21 16 7 0 6 -4 -3 -10 -13
-8 -12 -10 3 -10 9 0 17 -8 17 -17 0 -16 3 -15 18 3 14 18 26 21 71 19 43 -1
57 -6 72 -26 16 -20 20 -22 28 -9 5 8 7 18 5 22 -3 4 1 8 10 8 8 0 23 3 33 7
15 6 16 4 6 -9 -18 -21 -7 -28 28 -18 20 6 39 5 55 -2 20 -10 27 -9 36 3 8 11
9 10 4 -5 -5 -16 -4 -17 8 -7 11 10 16 9 23 -4 7 -12 9 -6 9 22 -1 21 -4 40
-8 43 -4 3 -3 12 2 20 7 10 10 11 10 3 0 -7 7 -13 15 -13 8 0 15 6 15 14 0 8
4 18 10 21 5 3 7 0 4 -9 -3 -8 2 -16 13 -19 16 -4 16 -5 1 -6 -10 0 -18 -6
-18 -12 0 -6 -7 -9 -14 -6 -18 7 -30 -25 -21 -54 5 -13 2 -25 -6 -29 -7 -5 10
-11 44 -15 57 -7 87 5 87 36 0 7 -9 1 -21 -12 -17 -20 -22 -21 -30 -9 -7 12
-11 12 -17 2 -9 -13 -42 -6 -42 8 0 17 21 63 26 57 3 -3 0 -15 -6 -27 -14 -26
-3 -43 11 -18 6 10 16 15 27 12 10 -4 13 -2 7 3 -5 4 -16 18 -23 31 -10 19
-10 22 4 22 8 0 13 -4 10 -9 -3 -5 2 -12 12 -16 23 -10 72 -17 52 -7 -19 9
-21 52 -2 52 8 0 12 6 9 15 -4 8 -1 17 5 21 8 5 9 -5 5 -34 -3 -23 -3 -42 -1
-42 2 0 13 9 24 20 14 14 16 20 6 20 -10 0 -12 7 -8 23 5 18 7 19 10 5 3 -14
6 -15 16 -5 17 17 27 47 17 47 -5 0 -12 -6 -14 -12 -4 -10 -6 -10 -6 -1 -1 18
17 25 36 14 10 -6 12 -11 6 -11 -7 0 -13 -5 -13 -11 0 -7 9 -6 23 4 22 14 24
13 36 -5 11 -18 11 -20 -1 -15 -8 3 -21 1 -29 -5 -11 -8 -10 -9 4 -4 10 3 17
0 17 -8 0 -9 13 -13 45 -12 29 1 44 5 41 12 -3 6 0 16 6 22 13 13 -56 37 -74
26 -10 -6 -10 -4 0 8 15 19 51 12 96 -17 15 -10 29 -15 33 -11 10 10 2 14
-103 56 -54 22 -85 38 -67 35 33 -7 54 9 26 19 -12 5 -13 10 -5 18 8 8 15 8
27 -2 12 -10 18 -8 34 11 11 13 22 21 26 18 3 -4 -1 -13 -9 -22 -13 -13 -13
-16 3 -31 20 -18 36 -22 26 -6 -3 6 3 10 14 10 12 0 21 4 21 9 0 4 -12 6 -26
3 -20 -4 -25 -2 -19 8 5 7 18 10 37 6 16 -3 39 -1 50 5 20 11 19 13 -21 31
-23 10 -47 16 -53 12 -6 -4 -8 -3 -5 3 7 11 -19 25 -173 93 -47 21 -169 79
-272 128 -181 88 -186 92 -198 129 -7 21 -31 72 -55 113 -23 41 -65 120 -93
175 -49 99 -103 168 -141 180 -27 8 -33 64 -21 201 6 64 8 119 5 122 -3 3 -5
-1 -5 -9z m877 -1125 c-3 -3 -12 -4 -19 -1 -8 3 -5 6 6 6 11 1 17 -2 13 -5z
m133 -34 c0 -5 -2 -10 -4 -10 -3 0 -8 5 -11 10 -3 6 -1 10 4 10 6 0 11 -4 11
-10z m-255 -41 c22 -10 29 -16 15 -13 -28 7 -80 33 -65 33 6 0 28 -9 50 -20z
m85 -59 c0 -5 -2 -10 -4 -10 -3 0 -8 5 -11 10 -3 6 -1 10 4 10 6 0 11 -4 11
-10z m-764 -72 c-18 -26 -22 -17 -5 14 6 11 13 17 16 15 3 -3 -2 -16 -11 -29z
m504 22 c0 -5 -5 -10 -11 -10 -5 0 -7 5 -4 10 3 6 8 10 11 10 2 0 4 -4 4 -10z
m350 -4 c0 -2 -7 -6 -15 -10 -8 -3 -15 -1 -15 4 0 6 7 10 15 10 8 0 15 -2 15
-4z m-232 -31 c-3 -3 -9 2 -12 12 -6 14 -5 15 5 6 7 -7 10 -15 7 -18z m-1108
-16 c0 -5 -4 -9 -10 -9 -5 0 -10 7 -10 16 0 8 5 12 10 9 6 -3 10 -10 10 -16z
m928 14 c-10 -2 -26 -2 -35 0 -10 3 -2 5 17 5 19 0 27 -2 18 -5z m-226 -27 c7
4 8 2 4 -5 -9 -13 -26 -5 -25 12 0 9 2 8 6 -1 2 -6 10 -9 15 -6z m148 4 c0 -5
-2 -10 -4 -10 -2 0 -12 -3 -22 -7 -16 -6 -17 -5 -4 10 17 19 30 22 30 7z m37
4 c-3 -3 -12 -4 -19 -1 -8 3 -5 6 6 6 11 1 17 -2 13 -5z m53 2 c0 -2 -7 -6
-15 -10 -8 -3 -15 -1 -15 4 0 6 7 10 15 10 8 0 15 -2 15 -4z m160 -16 c0 -5
-7 -10 -16 -10 -8 0 -12 5 -9 10 3 6 10 10 16 10 5 0 9 -4 9 -10z m-730 -4 c0
-2 -7 -6 -15 -10 -8 -3 -15 -1 -15 4 0 6 7 10 15 10 8 0 15 -2 15 -4z m575 -6
c3 -5 1 -10 -4 -10 -6 0 -11 5 -11 10 0 6 2 10 4 10 3 0 8 -4 11 -10z m-555
-10 c0 -5 -5 -10 -11 -10 -5 0 -7 5 -4 10 3 6 8 10 11 10 2 0 4 -4 4 -10z
m527 -6 c-3 -3 -12 -4 -19 -1 -8 3 -5 6 6 6 11 1 17 -2 13 -5z m-693 -40 c3
-8 2 -12 -4 -9 -6 3 -10 10 -10 16 0 14 7 11 14 -7z"/>
<path d="M4608 6736 c-30 -29 -19 -112 23 -171 19 -28 20 -28 13 -5 -4 14 -10
63 -13 109 -6 81 -7 84 -23 67z"/>
<path d="M4326 6175 c-10 -8 -72 -35 -137 -61 -66 -26 -117 -49 -115 -51 8 -9
286 110 286 122 0 9 -15 5 -34 -10z"/>
<path d="M4015 6050 c-13 -5 -14 -9 -5 -9 8 0 24 4 35 9 13 5 14 9 5 9 -8 0
-24 -4 -35 -9z"/>
<path d="M3900 6020 c-74 -24 -51 -25 30 -1 36 11 56 19 45 19 -11 0 -45 -8
-75 -18z"/>
<path d="M5257 5994 c6 -15 23 -19 23 -5 0 5 -7 11 -14 14 -10 4 -13 1 -9 -9z"/>
<path d="M7174 5998 c-4 -7 -3 -13 3 -15 5 -2 8 -16 7 -31 l-4 -27 11 27 10
27 44 -17 c25 -9 40 -19 34 -23 -6 -3 2 -6 18 -6 15 0 37 -3 48 -7 21 -7 -50
29 -122 63 -31 15 -44 17 -49 9z"/>
<path d="M3745 5970 c-38 -16 -63 -29 -55 -29 8 0 47 13 85 29 39 16 63 29 55
29 -8 -1 -46 -14 -85 -29z"/>
<path d="M5566 5943 c-6 -14 -5 -15 5 -6 7 7 10 15 7 18 -3 3 -9 -2 -12 -12z"/>
<path d="M7125 5930 c3 -5 8 -10 11 -10 2 0 4 5 4 10 0 6 -5 10 -11 10 -5 0
-7 -4 -4 -10z"/>
<path d="M5390 5913 c0 -6 -25 -24 -56 -39 -31 -15 -58 -33 -61 -41 -3 -7 -10
-10 -16 -6 -5 3 -7 2 -4 -4 7 -11 -37 -76 -46 -67 -3 3 -11 -4 -17 -17 -11
-19 -10 -24 5 -35 10 -8 22 -11 28 -7 5 3 6 -4 2 -18 -7 -22 -7 -22 9 -6 10 9
15 21 12 26 -4 5 2 8 11 6 10 -1 25 1 34 6 10 5 21 3 29 -4 9 -8 11 -8 6 0 -4
7 11 13 44 18 28 4 57 13 65 21 19 19 24 18 18 -5 -4 -15 0 -18 21 -16 15 2
24 -1 20 -7 -3 -5 -8 -7 -11 -4 -3 3 -20 -1 -37 -8 -17 -7 -37 -11 -43 -9 -7
3 -13 0 -13 -6 0 -5 -8 -10 -17 -10 -47 1 -187 -37 -197 -53 -5 -9 -7 -20 -4
-24 4 -3 58 6 120 21 111 27 156 35 210 38 15 1 30 5 33 9 10 10 -35 79 -46
73 -5 -4 -7 0 -4 7 3 7 -18 49 -45 93 -28 44 -50 74 -50 68z m-7 -92 c-2 -6 3
-10 9 -8 7 1 14 -8 16 -20 4 -25 -27 -49 -76 -59 -27 -6 -33 -3 -43 20 -26 55
31 123 76 91 11 -7 19 -18 18 -24z"/>
<path d="M6980 5910 c-9 -6 0 -12 31 -19 24 -7 56 -18 71 -26 36 -21 46 -19
17 3 -36 28 -103 52 -119 42z"/>
<path d="M7085 5910 c-3 -6 1 -7 9 -4 18 7 21 14 7 14 -6 0 -13 -4 -16 -10z"/>
<path d="M7170 5911 c0 -6 5 -13 10 -16 6 -3 10 1 10 9 0 9 -4 16 -10 16 -5 0
-10 -4 -10 -9z"/>
<path d="M5470 5904 c0 -13 18 -39 24 -34 2 3 -2 14 -10 24 -8 11 -14 16 -14
10z"/>
<path d="M7433 5873 c0 -9 4 -10 14 -2 7 6 13 12 13 14 0 1 -6 2 -13 2 -8 0
-14 -6 -14 -14z"/>
<path d="M3692 5860 c0 -14 2 -19 5 -12 2 6 2 18 0 25 -3 6 -5 1 -5 -13z"/>
<path d="M7477 5869 c7 -7 15 -10 18 -7 3 3 -2 9 -12 12 -14 6 -15 5 -6 -5z"/>
<path d="M5490 5852 c0 -5 9 -17 19 -26 11 -10 22 -28 25 -42 4 -13 11 -24 17
-24 6 0 7 -4 4 -10 -3 -5 -1 -10 4 -10 6 0 11 2 11 4 0 11 -45 82 -57 89 -7 5
-11 12 -8 18 4 5 1 9 -4 9 -6 0 -11 -4 -11 -8z"/>
<path d="M7551 5820 c0 -3 -32 -129 -70 -280 -38 -151 -77 -321 -87 -378 -17
-95 -20 -103 -39 -99 -11 3 -93 20 -182 38 -135 28 -168 32 -193 22 -28 -11
-29 -10 -19 9 8 15 8 19 0 14 -6 -4 -11 -1 -11 6 0 7 -8 1 -17 -12 -10 -14
-16 -33 -15 -44 2 -11 -1 -16 -7 -12 -6 4 -11 3 -11 -3 0 -5 4 -12 8 -15 9 -5
2 -163 -8 -173 -1 -2 -3 -6 -4 -10 -1 -5 -12 -35 -25 -68 -13 -34 -20 -71 -17
-86 3 -14 0 -31 -7 -38 -8 -8 -8 -11 0 -11 14 0 11 -18 -7 -50 -10 -17 -17
-68 -20 -157 l-5 -132 32 -30 32 -30 -30 -26 c-17 -14 -39 -25 -49 -25 -28 0
-77 -46 -83 -77 -4 -19 2 -43 18 -73 l23 -46 -43 -169 c-23 -94 -46 -177 -49
-186 -5 -12 0 -18 19 -21 21 -4 26 -1 31 21 2 14 11 49 19 76 16 59 42 174 44
195 2 36 18 107 29 126 14 26 12 26 199 -30 67 -20 129 -36 138 -36 24 0 18
-55 -19 -181 -51 -169 -58 -189 -67 -184 -4 3 -5 -5 -2 -16 4 -14 0 -25 -11
-31 -16 -9 -23 -38 -8 -38 5 0 8 -30 8 -67 l-1 -68 95 -1 c103 -1 123 2 113
19 -10 17 21 -5 35 -25 13 -17 38 -26 28 -10 -7 12 53 7 87 -6 16 -7 33 -12
38 -12 5 0 9 -4 9 -8 0 -7 19 -12 63 -15 9 -1 17 -4 17 -8 0 -9 49 -25 101
-33 21 -4 42 -13 49 -21 7 -8 16 -13 20 -10 4 2 15 -13 24 -34 17 -37 22 -39
109 -64 127 -36 145 -38 218 -22 44 9 68 10 77 3 8 -7 17 -7 27 2 8 7 15 9 15
4 1 -5 7 2 15 16 11 19 14 21 15 8 0 -12 5 -15 16 -11 11 4 12 8 4 13 -14 9
-13 19 5 46 20 31 24 79 6 79 -8 0 -16 5 -18 12 -3 8 4 10 21 7 24 -4 44 11
31 24 -3 3 -10 0 -15 -8 -8 -12 -10 -11 -10 5 0 17 -2 17 -10 5 -17 -26 -12
21 5 54 17 32 20 51 4 24 -5 -10 -15 -18 -21 -18 -7 0 -6 5 2 15 7 8 10 24 7
34 -3 12 1 22 9 25 11 4 14 19 10 62 -2 31 -8 59 -12 62 -4 4 -4 -3 -1 -15 3
-13 2 -25 -2 -27 -4 -3 -8 9 -9 25 -1 16 3 29 9 29 7 0 9 12 5 34 -5 24 -2 37
9 46 16 13 21 35 6 26 -5 -3 -11 3 -14 14 -3 11 -1 23 4 26 5 3 9 -1 10 -8 0
-7 5 0 9 16 5 16 7 33 4 38 -3 4 4 8 14 8 14 0 20 7 20 24 0 13 11 37 26 52
27 30 33 44 16 44 -5 0 -10 7 -10 15 0 10 6 12 18 8 15 -6 16 -5 2 11 -13 16
-12 20 5 33 14 11 15 14 4 10 -13 -4 -15 -1 -12 14 3 10 0 19 -6 19 -6 0 -11
-4 -11 -9 0 -6 -9 -9 -20 -8 -25 2 -26 17 -1 17 20 0 74 39 54 40 -6 0 -15 9
-18 20 -4 11 -11 18 -16 15 -5 -4 -9 -1 -9 5 0 6 -4 8 -10 5 -16 -10 -12 -21
15 -35 30 -16 32 -26 4 -33 -15 -4 -19 -2 -15 9 3 8 1 14 -4 14 -6 0 -10 -4
-10 -10 0 -5 -7 -7 -15 -4 -9 4 -15 0 -15 -10 0 -9 -5 -16 -11 -16 -6 0 -8 7
-5 16 3 9 6 20 6 25 0 4 7 6 16 2 11 -4 15 0 14 13 -4 39 0 46 23 41 12 -3 31
-1 42 4 l20 9 -20 -3 c-11 -2 -28 5 -38 15 -17 18 -16 18 10 13 27 -6 27 -6 9
9 -16 13 -17 16 -4 16 11 0 15 6 11 20 -3 11 -9 20 -14 20 -5 0 -8 10 -8 23 1
17 2 18 6 4 2 -9 9 -15 14 -12 5 4 4 15 -3 28 -10 19 -9 20 3 10 12 -10 15 -8
16 8 1 11 -2 17 -8 14 -5 -4 -9 -1 -9 5 0 6 -5 8 -12 4 -7 -4 -8 -3 -4 5 4 6
12 9 17 6 13 -9 11 9 -3 24 -11 10 -10 11 5 6 12 -5 17 -2 17 10 0 9 5 13 10
10 6 -3 10 -1 10 4 0 6 -4 11 -10 11 -5 0 -10 7 -10 16 0 9 5 12 13 8 8 -5 8
-2 -2 9 -9 12 -10 17 -2 17 7 0 10 4 7 9 -3 5 1 14 10 21 19 17 -1 32 -31 24
-19 -6 -19 -5 -2 8 16 12 13 13 -30 8 -53 -6 -93 -24 -79 -37 5 -4 11 -2 13 5
5 14 33 17 33 3 0 -15 -43 -21 -59 -8 -12 10 -14 9 -8 -5 4 -12 2 -18 -8 -18
-7 0 -17 -4 -20 -10 -4 -6 1 -7 11 -3 12 4 15 3 10 -5 -4 -7 -14 -12 -22 -12
-13 0 -19 -13 -15 -34 1 -5 -4 -6 -11 -3 -8 3 -14 -2 -14 -13 0 -11 6 -16 16
-14 8 3 6 0 -6 -6 -17 -10 -79 -123 -76 -140 0 -3 -6 -13 -15 -22 -8 -9 -16
-29 -16 -45 -1 -15 -8 -34 -14 -41 -11 -11 -12 -7 -8 23 8 63 295 765 316 773
5 2 7 7 5 10 -2 4 2 13 10 20 18 16 18 4 -1 -31 -13 -25 -13 -29 1 -34 12 -4
13 -8 3 -14 -9 -5 -10 -11 -2 -21 5 -7 9 -31 8 -53 -1 -22 3 -46 8 -52 6 -9 6
-13 -2 -13 -6 0 -11 -4 -11 -10 0 -5 6 -10 14 -10 10 0 13 -8 10 -27 -3 -21
-2 -24 5 -13 8 12 11 11 16 -5 4 -11 11 -28 16 -37 5 -10 9 -26 9 -36 0 -11 9
-45 20 -77 11 -32 18 -61 15 -63 -3 -3 -1 -10 4 -16 5 -6 12 -36 15 -66 3 -30
9 -82 12 -115 10 -82 5 -435 -6 -435 -3 0 -5 -18 -3 -40 1 -22 -1 -40 -5 -40
-9 0 -8 -72 2 -88 4 -7 3 -19 -3 -25 -5 -7 -8 -23 -5 -34 4 -15 1 -23 -13 -26
-16 -4 -16 -5 -1 -6 15 -1 17 -10 15 -66 -2 -36 0 -65 5 -65 4 0 8 -7 8 -15 0
-8 -6 -15 -12 -15 -9 0 -9 -3 -2 -8 6 -4 11 -49 11 -107 2 -133 13 -258 24
-269 5 -6 9 -18 9 -28 0 -54 71 -138 91 -107 7 11 9 11 9 -1 1 -9 14 0 35 23
18 22 38 36 44 33 12 -8 25 30 15 46 -4 7 2 4 14 -6 18 -15 22 -16 22 -4 0 16
26 18 50 3 9 -5 15 -4 18 3 2 7 11 12 19 12 9 0 13 6 9 15 -4 12 -2 13 17 2
39 -22 49 -50 21 -61 -11 -4 -14 -1 -9 13 4 15 0 19 -20 19 -14 0 -25 -4 -25
-9 0 -5 7 -9 16 -9 8 0 12 -5 9 -10 -3 -5 -1 -10 5 -10 7 0 10 -6 7 -14 -3 -8
1 -17 9 -20 23 -9 34 -7 34 4 0 6 -7 10 -16 10 -8 0 -12 5 -9 10 4 6 14 10 23
9 30 -3 42 1 42 12 0 8 -5 8 -15 -1 -9 -8 -15 -9 -15 -2 0 6 5 14 10 17 16 10
50 -5 50 -21 0 -8 -4 -13 -8 -10 -13 8 -35 -11 -28 -23 10 -16 26 -14 20 3 -4
11 0 13 15 9 28 -7 29 30 2 49 -11 8 -23 26 -26 41 -6 21 -4 27 10 27 13 0 16
-6 11 -23 -4 -18 -1 -23 14 -23 11 0 20 4 20 8 0 4 5 8 10 8 7 0 7 -6 0 -20
-6 -11 -7 -20 -1 -20 11 0 24 -31 16 -39 -3 -3 -11 1 -16 9 -9 13 -10 13 -7 1
6 -21 24 -24 41 -6 17 16 37 20 37 7 0 -4 -7 -18 -16 -31 -16 -23 -16 -23 6
-11 18 10 24 9 31 -1 5 -8 3 -16 -3 -20 -14 -9 -20 -39 -7 -39 5 0 9 4 9 10 0
5 8 6 17 3 15 -6 14 -8 -5 -21 -27 -18 -28 -32 -2 -25 12 3 20 0 20 -7 0 -7
-7 -10 -15 -6 -8 3 -15 1 -15 -4 0 -5 -6 -7 -12 -5 -19 7 -48 63 -37 69 5 2 4
3 -3 2 -7 -2 -13 -8 -13 -14 0 -26 -24 -36 -50 -22 -26 14 -50 5 -25 -10 8 -5
11 -12 7 -16 -3 -4 -13 -1 -22 6 -12 10 -15 10 -15 -3 0 -20 -23 -27 -97 -31
-234 -14 -236 -15 -311 -85 -27 -25 -130 -52 -166 -43 -12 2 -32 15 -46 27
-14 12 -50 28 -80 35 -70 17 -113 35 -130 54 -7 9 -19 16 -27 16 -14 0 -123
70 -156 101 -36 33 -241 72 -249 47 -3 -9 -34 -1 -104 26 -54 21 -129 46 -165
56 -71 19 -104 35 -182 88 -27 18 -55 31 -63 28 -8 -3 -14 -2 -14 2 0 4 -17
18 -38 32 -20 14 -45 33 -54 44 -18 19 -18 18 -18 -7 0 -15 6 -75 14 -134 8
-59 15 -115 15 -123 0 -8 2 -26 5 -40 3 -26 -9 -50 -26 -50 -5 0 -6 6 -2 13 6
9 4 9 -8 -1 -19 -15 -26 -7 -26 31 1 41 -17 55 -32 26 -10 -18 -10 -24 1 -33
17 -13 24 -46 10 -46 -5 0 -12 8 -14 18 -4 16 -5 16 -6 0 0 -10 -5 -18 -11
-18 -5 0 -7 -8 -4 -17 5 -15 3 -15 -10 1 -9 11 -16 24 -16 29 0 4 -5 5 -12 1
-7 -4 -8 -3 -4 5 4 6 12 9 17 6 18 -12 8 15 -16 41 -19 20 -25 23 -25 10 0 -9
-4 -16 -10 -16 -5 0 -6 7 -3 17 5 12 3 14 -7 8 -10 -6 -12 -4 -7 8 4 12 1 17
-11 18 -14 0 -14 2 3 9 11 5 15 9 9 9 -10 1 -26 36 -29 66 -1 6 -4 30 -8 55
-4 25 -9 68 -13 95 -3 28 -10 57 -15 65 -7 13 -11 -25 -12 -137 0 -13 -3 -23
-6 -23 -11 0 -8 -44 3 -52 8 -5 7 -8 0 -8 -11 0 -15 -27 -15 -111 0 -20 -6
-54 -14 -74 -11 -34 -13 -36 -19 -17 -4 12 -5 26 -2 31 8 12 -3 41 -15 41 -5
0 -9 -11 -9 -25 0 -17 -5 -25 -17 -24 -11 0 -13 3 -5 6 14 6 16 42 2 63 -8 13
-10 13 -10 1 0 -11 -3 -12 -11 -4 -14 14 -4 47 11 38 5 -3 10 1 10 9 0 10 -6
13 -15 10 -11 -5 -15 1 -16 22 0 25 -1 26 -9 9 -6 -14 -9 -15 -9 -4 -1 8 4 20
10 26 6 6 9 16 5 21 -6 11 -54 4 -62 -9 -7 -12 -44 -12 -44 0 0 5 6 12 13 14
7 3 4 6 -7 6 -14 1 -16 4 -8 14 15 18 15 29 2 37 -8 5 -9 13 -4 21 4 8 9 27
11 44 4 36 11 80 13 80 1 0 3 9 4 20 1 11 6 37 10 58 5 25 3 37 -5 37 -6 0 -9
-7 -6 -14 4 -11 1 -13 -10 -9 -12 5 -14 1 -8 -15 4 -16 2 -22 -8 -22 -17 0
-47 -42 -47 -65 0 -8 -7 -15 -16 -15 -13 0 -14 -3 -5 -14 7 -9 8 -17 2 -20 -5
-3 -12 0 -14 6 -3 7 -6 4 -6 -8 -1 -11 5 -26 12 -33 6 -7 8 -12 2 -11 -26 5
-45 -2 -45 -16 0 -11 -6 -15 -20 -11 -11 3 -20 1 -20 -4 0 -5 -7 -9 -15 -9 -8
0 -15 -4 -15 -10 0 -5 -7 -10 -16 -10 -8 0 -12 5 -9 10 4 7 -2 9 -18 4 -23 -5
-25 -3 -21 18 l5 23 -12 -22 c-7 -13 -16 -23 -22 -23 -5 0 -4 7 3 14 7 10 8
21 2 32 -7 13 -10 10 -17 -17 -8 -34 -8 -34 -12 -6 -5 31 -23 37 -23 7 0 -23
-18 -27 -26 -5 -4 8 -10 12 -15 9 -6 -3 -21 1 -34 10 -30 20 -45 20 -45 1 0
-23 -55 -23 -101 -1 -21 11 -48 13 -79 7 -3 -1 2 -6 10 -11 13 -8 12 -10 -2
-10 -13 0 -18 8 -18 30 0 23 -3 28 -17 23 -9 -4 -14 -2 -10 3 3 5 -3 10 -14
10 -10 0 -19 -4 -19 -8 0 -4 5 -8 12 -8 6 0 8 -3 5 -6 -4 -4 -14 -1 -23 7 -16
13 -17 11 -10 -13 3 -16 2 -28 -3 -28 -4 0 -12 15 -16 33 l-8 32 -6 -30 -7
-30 -8 33 c-9 37 -26 44 -18 7 3 -18 0 -25 -12 -25 -9 0 -22 -15 -30 -33 -16
-39 -69 -87 -96 -87 -44 0 -129 25 -221 65 -55 24 -99 41 -99 38 0 -2 39 -22
88 -44 48 -22 98 -45 112 -52 64 -32 81 -167 26 -214 -36 -30 -85 -30 -171 2
-94 36 -93 24 2 -15 43 -18 84 -37 91 -42 6 -6 12 -32 12 -57 0 -37 -5 -52
-22 -68 -51 -46 -87 -52 -193 -29 -33 7 -63 12 -66 10 -4 -2 -14 -45 -24 -96
-10 -51 -25 -106 -33 -123 -8 -16 -17 -54 -19 -85 -6 -76 -7 -83 -2 -100 3
-10 -5 -16 -23 -18 -34 -4 -37 -35 -9 -88 11 -20 17 -42 14 -50 -3 -8 -1 -14
5 -14 8 0 18 -33 24 -77 1 -7 5 -13 10 -13 4 0 8 -11 8 -24 0 -14 5 -28 10
-31 8 -5 7 -11 -1 -21 -9 -11 -8 -14 5 -14 9 0 18 -11 21 -28 4 -15 10 -34 14
-42 18 -33 23 -80 9 -81 -7 0 -3 -4 10 -9 24 -10 30 -30 10 -30 -10 0 -9 -3 1
-9 7 -5 10 -14 7 -20 -4 -6 -3 -11 2 -11 11 0 22 -23 28 -55 5 -29 35 -115 50
-147 16 -30 18 -41 5 -34 -5 3 -8 -5 -7 -18 1 -23 18 -29 33 -11 4 4 2 5 -4 1
-15 -8 -18 10 -3 19 9 6 14 -8 11 -29 -1 -4 3 -14 9 -20 5 -7 7 -15 4 -18 -3
-3 11 -9 31 -12 35 -7 46 -20 23 -29 -8 -3 -6 -6 5 -6 25 -1 21 -21 -4 -21
-15 0 -19 -4 -15 -16 3 -9 7 -30 8 -47 1 -27 2 -24 8 13 l7 45 1 -47 c1 -26 7
-50 12 -53 6 -3 10 -11 10 -16 0 -6 -4 -7 -10 -4 -16 10 -12 -7 7 -27 15 -17
15 -18 0 -18 -10 0 -17 -6 -17 -12 0 -7 -3 -23 -6 -35 -6 -20 -3 -23 25 -23
l31 0 0 -60 c0 -33 4 -60 10 -60 6 0 10 12 10 27 0 40 11 21 16 -29 3 -31 2
-39 -6 -28 -6 10 -10 11 -10 3 0 -7 -5 -13 -11 -13 -6 0 -9 6 -6 14 3 8 1 16
-5 18 -6 2 -11 27 -12 55 -1 51 -16 90 -16 42 0 -14 -5 -30 -12 -37 -14 -14
-19 -54 -6 -46 5 4 7 12 4 20 -3 8 0 14 5 14 11 0 8 -28 -7 -65 -7 -18 -6 -18
9 -6 14 11 18 10 28 -13 9 -19 9 -32 -1 -57 -12 -28 -15 -30 -21 -13 -5 12 -7
4 -7 -23 0 -30 5 -43 14 -43 8 0 14 -4 14 -10 0 -5 -11 -10 -24 -10 -14 0 -28
-4 -31 -10 -3 -5 2 -9 12 -8 37 3 63 -2 63 -13 0 -5 -5 -7 -11 -3 -7 4 -10 1
-7 -7 3 -8 15 -13 26 -11 12 2 22 -2 22 -7 0 -6 -21 -11 -47 -12 -30 -1 -40
-3 -28 -7 14 -5 20 -16 20 -37 -1 -16 -6 -30 -12 -30 -6 0 -15 -3 -19 -7 -4
-5 2 -8 13 -8 13 0 20 -6 19 -17 0 -10 9 -20 24 -24 22 -6 22 -7 4 -8 -32 -2
-37 -14 -12 -28 l23 -12 -22 -1 c-13 0 -23 -5 -23 -11 0 -6 7 -9 15 -5 9 3 15
0 15 -9 0 -8 -7 -15 -15 -15 -8 0 -15 -7 -15 -15 0 -8 7 -15 15 -15 8 0 17
-14 21 -35 3 -19 10 -33 14 -30 9 6 21 -35 14 -47 -3 -5 -12 -4 -19 2 -7 6
-20 8 -29 4 -24 -9 -19 -23 7 -16 22 5 22 5 3 -16 -11 -12 -15 -22 -11 -22 4
0 0 -9 -10 -20 -16 -18 -16 -20 -2 -20 15 0 22 18 18 43 -2 11 13 8 35 -7 10
-8 15 -18 11 -22 -4 -5 -12 -3 -16 5 -7 10 -9 10 -14 -3 -3 -8 -1 -17 6 -20
11 -4 -5 -8 -47 -10 -11 -1 -21 -8 -24 -16 -4 -13 -3 -13 10 -2 11 9 18 10 23
2 3 -5 -1 -13 -9 -16 -9 -3 -16 -10 -16 -15 0 -5 11 -4 25 1 15 6 25 6 25 0 0
-5 -9 -11 -19 -15 -11 -3 -22 -12 -25 -21 -4 -11 -2 -12 14 -4 22 12 57 14 46
3 -4 -5 -11 -8 -14 -9 -16 -2 -62 -24 -62 -30 0 -3 7 -4 15 0 9 3 15 0 15 -8
0 -8 -7 -16 -15 -20 -8 -3 -15 -15 -15 -26 0 -18 6 -20 55 -20 37 0 55 4 55
13 0 8 4 7 10 -3 8 -13 10 -12 10 3 0 9 -4 17 -8 17 -5 0 -9 7 -9 15 0 16 26
21 28 5 1 -5 3 -14 4 -20 1 -5 3 -14 4 -19 0 -5 165 -9 381 -10 l380 -1 0 88
c0 92 5 173 20 387 9 121 16 161 35 209 7 16 4 18 -38 15 -25 -2 -43 -1 -40 4
2 4 -1 7 -6 7 -6 0 -11 -3 -11 -7 0 -5 -19 -8 -43 -9 -23 0 -112 -6 -197 -12
-280 -20 -530 -26 -530 -13 0 8 11 11 28 10 15 -2 33 0 40 4 6 5 12 4 12 -2 0
-11 39 -13 74 -4 15 4 16 7 5 14 -12 8 89 15 144 11 11 -1 17 5 17 21 0 15 -3
18 -9 9 -5 -9 -39 -14 -102 -17 -52 -2 -78 -1 -58 3 31 6 35 9 23 20 -8 7 -14
9 -14 5 0 -5 -18 -8 -40 -8 -63 0 -47 13 25 20 67 8 76 15 50 41 -17 17 -35
10 -35 -13 0 -39 -12 0 -17 56 l-5 61 28 1 29 1 -33 9 c-39 11 -35 28 5 23 27
-3 27 -3 3 4 -19 6 -25 15 -27 42 -4 57 -4 233 0 262 3 20 0 28 -11 28 -13 0
-12 3 4 14 12 9 23 11 28 5 6 -5 24 -9 40 -8 29 0 29 1 9 9 -21 9 -32 30 -15
30 22 -1 43 -30 37 -50 -6 -19 -5 -20 14 -9 17 11 26 10 60 -8 23 -12 43 -18
46 -12 4 5 -1 9 -9 9 -9 0 -16 4 -16 10 0 5 -11 12 -25 16 -14 3 -22 10 -19
15 3 6 14 7 24 4 10 -3 25 1 33 10 9 8 23 12 31 9 9 -3 16 -1 16 5 0 6 7 11
15 11 8 0 15 5 15 11 0 7 -10 9 -25 5 -14 -4 -25 -2 -25 3 0 5 10 11 23 13 13
2 18 6 11 10 -7 4 -24 -2 -38 -13 -21 -16 -30 -18 -40 -9 -11 8 -16 8 -22 -1
-4 -7 -2 -15 4 -17 21 -7 13 -25 -9 -19 -14 4 -22 -1 -28 -15 -7 -19 -8 -20
-14 -4 -8 21 0 39 14 31 5 -4 12 2 16 12 9 23 49 63 63 63 19 0 10 -18 -12
-23 -12 -4 -19 -9 -15 -13 10 -11 65 16 70 34 4 15 5 15 6 0 1 -22 29 -24 37
-3 8 19 21 19 40 1 23 -23 16 -35 -17 -29 -22 3 -29 1 -24 -7 4 -7 15 -10 25
-7 27 7 14 -19 -13 -28 -20 -7 -20 -8 -3 -12 10 -3 23 1 28 9 7 10 11 10 15 1
2 -7 13 -13 24 -13 10 0 19 -4 19 -9 0 -5 10 -11 23 -13 16 -2 21 -9 20 -24
-2 -18 4 -23 31 -26 31 -3 35 -1 38 24 4 23 1 28 -16 27 -12 0 -15 -3 -8 -6
16 -6 15 -23 -2 -23 -23 0 -29 31 -6 37 11 3 20 14 20 25 0 10 4 17 10 13 5
-3 7 -12 3 -20 -3 -10 2 -15 16 -15 21 0 21 -1 5 -25 -13 -20 -14 -31 -6 -48
10 -21 11 -21 11 8 1 20 4 26 11 19 7 -7 8 -19 1 -37 -8 -21 -7 -25 4 -20 15
5 19 16 16 41 -2 11 2 11 21 1 20 -11 20 -14 6 -17 -10 -2 -18 -8 -18 -14 0
-5 12 -7 29 -3 26 6 29 4 24 -15 -3 -11 -9 -23 -14 -26 -14 -8 -11 -44 4 -45
6 0 3 -4 -8 -9 -20 -9 -20 -9 2 -15 36 -11 42 -55 6 -55 -12 0 -13 3 -4 14 9
11 1 17 -41 33 -29 12 -55 19 -57 17 -9 -8 24 -34 37 -29 17 6 44 -13 36 -27
-3 -5 -11 -4 -20 3 -17 14 -60 4 -83 -18 -15 -16 -15 -16 4 -8 11 4 47 8 79 7
64 -2 91 -12 35 -13 -29 0 -31 -2 -13 -9 25 -10 26 -57 1 -52 -10 1 -17 -6
-20 -20 -3 -22 -4 -22 -12 -4 -5 12 -5 21 2 23 18 6 2 51 -20 57 -31 8 -33 -1
-7 -29 14 -15 18 -25 11 -25 -9 0 -11 -8 -7 -25 5 -18 2 -27 -9 -31 -18 -7
-20 -31 -2 -37 6 -2 8 -8 4 -13 -17 -18 -49 38 -45 78 2 23 -1 37 -7 35 -18
-6 -18 -79 -1 -89 22 -13 20 -44 -5 -61 -20 -14 -19 -15 16 -15 38 0 65 -15
47 -26 -5 -3 -28 -7 -50 -8 -23 -2 -42 -7 -42 -11 0 -5 19 -6 43 -3 37 5 39 5
17 -5 -46 -21 -100 -28 -100 -13 0 8 7 11 18 8 14 -5 15 -4 2 5 -24 17 -39 13
-33 -9 4 -16 0 -20 -21 -20 -20 0 -26 5 -27 23 -1 21 -1 21 -9 -3 -4 -14 -9
-18 -9 -10 -1 10 -4 11 -9 4 -11 -16 -92 -18 -92 -2 0 9 -3 9 -10 -2 -8 -12
-10 -9 -10 13 0 26 2 27 46 27 25 0 43 4 39 9 -3 5 -1 12 5 16 5 3 10 -1 10
-11 0 -12 6 -15 23 -10 12 3 33 6 46 6 39 0 14 14 -27 14 -31 1 -38 5 -40 23
-2 13 -7 23 -12 23 -4 0 -6 -9 -3 -20 3 -11 0 -20 -6 -20 -6 0 -11 6 -11 13 0
6 -8 21 -16 32 -15 19 -15 19 -8 -10 4 -16 11 -31 16 -33 14 -6 9 -22 -7 -22
-8 0 -15 6 -15 14 0 9 -7 12 -20 9 -21 -6 -28 12 -7 20 6 2 9 8 4 13 -4 4 -14
-2 -23 -14 -19 -27 -100 -33 -90 -7 6 16 -9 21 -18 6 -7 -11 12 -27 39 -35 12
-3 7 -4 -11 -3 -20 2 -31 -2 -31 -10 0 -8 14 -13 40 -13 29 0 38 3 34 14 -7
17 30 26 59 15 15 -6 11 -8 -16 -9 -19 -1 -29 -4 -22 -7 6 -2 12 -19 12 -37 0
-29 3 -33 23 -30 12 2 101 5 197 8 96 3 185 7 198 10 13 3 43 6 68 7 37 2 44
6 44 23 0 12 -4 16 -8 11 -9 -14 -52 -17 -52 -4 0 5 -5 9 -11 9 -5 0 -8 -4 -5
-8 3 -5 -13 -9 -35 -10 -34 -2 -40 1 -35 14 3 9 6 20 6 25 0 5 11 9 25 9 14 0
25 5 25 11 0 6 8 8 19 4 13 -4 23 0 30 12 9 16 12 16 21 3 9 -12 10 -9 4 10
-4 14 -12 29 -18 33 -6 5 -1 6 11 2 16 -4 25 0 35 17 7 13 11 27 10 31 -1 5 7
5 19 2 16 -5 20 -3 17 6 -7 20 21 71 34 63 6 -4 8 -3 5 3 -4 6 -3 30 2 54 6
31 9 37 11 19 3 -32 21 47 23 103 1 20 5 37 9 37 4 0 6 8 6 18 -2 34 22 136
34 143 9 6 8 12 -3 25 -11 13 -11 18 -1 21 6 3 10 9 6 14 -3 5 -1 9 5 9 5 0
11 19 13 43 2 27 7 41 16 40 8 -2 12 9 12 33 0 21 4 33 10 29 6 -3 10 2 11 12
1 10 2 44 4 76 3 73 15 88 15 19 0 -52 0 -52 33 -52 24 0 28 3 17 10 -13 8
-12 10 3 10 32 0 12 -25 -21 -28 -18 -2 -32 -6 -32 -10 0 -4 -2 -56 -4 -117
-2 -60 -5 -153 -6 -205 -1 -52 -4 -89 -7 -83 -3 10 -8 10 -19 -1 -18 -19 -18
-32 0 -17 8 7 17 8 20 3 3 -5 -4 -16 -15 -25 -11 -10 -19 -29 -19 -47 0 -42 0
-43 -12 -57 -8 -10 -6 -13 6 -13 9 0 16 -4 16 -10 0 -5 -14 -8 -30 -6 -28 3
-29 2 -16 -13 17 -19 2 -38 -29 -34 -17 2 -17 1 -2 -3 23 -7 15 -48 -15 -81
-12 -13 -18 -26 -15 -30 4 -3 2 -11 -3 -18 -7 -8 -5 -12 5 -12 8 0 12 4 10 8
-3 4 2 9 10 13 8 3 15 14 15 25 0 10 7 21 15 24 8 4 12 15 10 27 -2 12 1 20
10 20 18 0 55 48 56 74 1 12 5 6 8 -14 4 -19 3 -41 -2 -48 -6 -7 -7 -15 -4
-18 3 -3 10 4 17 15 6 12 8 21 4 21 -4 0 1 10 12 22 14 17 15 19 2 10 -15 -12
-16 -10 -13 15 2 15 4 28 5 28 6 0 5 64 -1 88 -5 18 -4 27 4 27 7 0 6 4 -3 10
-13 8 -13 10 1 10 23 0 30 -11 18 -27 -8 -8 -8 -13 -1 -13 6 0 12 4 14 9 2 5
17 12 33 15 l30 6 -27 -12 c-16 -7 -28 -15 -28 -20 0 -4 -7 -8 -15 -8 -8 0
-15 -5 -15 -11 0 -6 9 -8 21 -4 l21 7 -21 -21 c-26 -26 -20 -41 12 -33 19 5
20 3 9 -10 -11 -14 -10 -17 8 -23 12 -4 18 -11 14 -18 -4 -7 7 1 25 18 17 16
34 39 37 51 3 13 12 25 20 28 8 3 14 11 14 18 0 9 -3 9 -11 -2 -8 -11 -9 -7
-6 19 2 19 1 50 -3 68 -5 22 -4 31 3 26 7 -4 8 0 4 11 -5 13 -3 17 7 13 7 -3
28 9 46 28 32 33 32 35 25 99 -8 79 -8 81 11 80 20 -2 18 3 -7 17 -17 9 -20 8
-14 -3 3 -7 1 -6 -7 3 -7 9 -23 19 -36 23 -41 14 -57 106 -27 162 8 16 15 25
15 20 0 -5 6 -3 14 3 7 6 42 17 77 24 54 11 65 16 67 35 3 21 0 22 -65 22 -37
0 -95 7 -128 14 -33 8 -62 13 -66 10 -9 -5 -64 23 -80 42 -24 29 -18 95 15
153 16 30 25 51 18 47 -8 -5 -10 -2 -6 8 3 9 11 14 17 13 13 -2 14 16 3 51 -6
17 -3 22 9 22 9 0 15 6 13 12 -3 7 1 19 9 26 7 8 10 18 7 24 -4 6 -1 8 7 6 8
-3 13 -10 12 -16 -2 -7 17 3 42 20 33 23 46 41 51 65 9 47 1 60 -45 74 -65 19
-94 57 -96 126 -1 32 0 50 2 40 3 -9 9 -15 14 -11 5 3 7 10 4 15 -4 5 -1 9 4
9 6 0 11 4 11 9 0 6 -17 12 -37 14 -21 2 -3 3 39 2 42 -1 75 2 72 6 -2 4 6 5
18 2 22 -4 22 -4 4 11 -10 8 -22 13 -27 11 -4 -3 -11 -1 -14 5 -4 6 -3 10 2 9
24 -4 31 7 36 62 3 35 11 65 19 70 7 5 44 9 82 9 66 0 68 1 63 23 -4 12 -2 29
4 37 8 12 9 11 5 -6 -4 -11 0 -27 6 -35 12 -14 39 -14 258 2 231 17 247 17
280 1 l35 -17 -3 -130 -3 -130 56 -18 c64 -19 75 -17 75 19 0 31 21 72 77 151
24 34 51 82 59 108 9 25 19 44 21 41 3 -3 25 -50 48 -105 23 -54 62 -134 87
-178 65 -112 103 -190 123 -253 21 -67 95 -230 104 -230 4 0 41 30 83 68 70
63 83 70 184 102 120 38 120 38 112 46 -4 3 -15 1 -27 -5 -30 -16 -35 2 -15
57 20 54 34 74 34 49 0 -15 7 -17 40 -14 25 2 40 0 41 -7 0 -6 4 -1 9 12 5 12
15 22 22 21 10 0 10 -2 1 -6 -35 -14 -4 -21 67 -16 105 7 189 -10 231 -48 18
-16 40 -29 49 -29 9 0 21 -5 28 -12 7 -7 12 -8 12 -3 0 6 4 5 8 -1 4 -6 25
-21 47 -34 l40 -22 -35 7 c-19 4 -42 12 -50 19 -13 9 -13 9 -2 -6 8 -9 34 -20
58 -24 24 -3 47 -10 50 -15 3 -5 14 -9 25 -9 10 0 19 -4 19 -10 0 -5 5 -10 11
-10 16 0 80 -66 72 -74 -4 -3 -1 -6 6 -6 8 0 11 -8 8 -20 -3 -11 0 -20 6 -20
8 0 8 -3 -1 -8 -10 -7 -10 -16 2 -44 9 -19 13 -38 10 -40 -2 -3 2 -18 11 -34
18 -34 19 -54 4 -54 -6 0 -9 -7 -5 -15 4 -11 -1 -14 -18 -13 -18 2 -22 7 -18
27 5 23 6 24 13 6 7 -18 8 -17 8 5 1 25 -18 61 -49 90 -24 24 -43 67 -35 81 6
8 4 10 -5 4 -10 -6 -12 -3 -7 14 6 25 -10 71 -25 71 -5 0 -6 4 -3 10 3 6 -1
10 -9 10 -9 0 -16 4 -16 9 0 5 -21 17 -47 26 -27 9 -56 21 -65 26 -11 5 -18 5
-18 0 0 -5 7 -12 16 -15 8 -3 12 -10 9 -16 -3 -5 -1 -10 4 -10 6 0 11 -7 11
-15 0 -8 4 -15 8 -15 5 0 33 -48 62 -108 30 -59 58 -110 64 -113 5 -4 6 -14 3
-24 -4 -9 -3 -14 3 -10 6 3 10 13 10 22 0 9 2 14 5 11 4 -3 3 -17 -1 -32 -6
-25 -7 -25 -36 -10 -16 9 -32 13 -36 10 -3 -3 0 -6 7 -6 8 0 11 -6 7 -16 -3
-8 -2 -12 4 -9 5 3 16 2 22 -2 17 -11 19 -43 2 -43 -7 0 -16 -5 -20 -12 -5 -8
0 -9 14 -6 12 4 22 2 22 -3 0 -5 -4 -9 -10 -9 -5 0 -10 -5 -10 -11 0 -6 7 -9
15 -6 8 4 17 2 20 -3 4 -6 -1 -10 -9 -10 -9 0 -18 -13 -22 -35 -3 -19 -11 -38
-17 -42 -6 -3 -7 -1 -3 5 4 7 4 27 1 46 -5 26 -11 33 -23 29 -15 -4 -15 -3 -2
6 12 8 12 13 2 23 -6 6 -12 22 -12 35 0 13 -5 23 -11 23 -5 0 -8 3 -6 8 3 4
-4 16 -14 26 -17 17 -19 18 -19 3 0 -9 -6 -17 -12 -18 -7 0 -4 -4 7 -9 19 -8
19 -9 -2 -9 -13 -1 -23 -5 -23 -11 0 -5 -6 -10 -14 -10 -10 0 -12 7 -9 22 6
23 6 23 -16 -1 -16 -18 -18 -26 -9 -32 12 -8 7 -11 -39 -25 -20 -5 -15 16 4
23 14 6 12 9 -12 20 -27 12 -27 13 -6 11 13 -2 26 2 28 7 6 18 -49 16 -62 -2
-11 -15 -14 -14 -33 5 -12 12 -22 25 -22 30 0 4 -6 15 -14 24 -11 16 -15 13
-34 -22 -19 -37 -14 -60 6 -24 8 15 10 15 15 -1 4 -9 12 -13 18 -9 8 5 9 3 5
-5 -5 -7 -15 -10 -24 -6 -9 3 -13 3 -9 -1 4 -4 2 -13 -3 -20 -16 -19 -21 -56
-9 -70 6 -7 8 -17 5 -22 -3 -5 -2 -22 3 -38 4 -16 4 -40 1 -54 -8 -28 -6 -30
-41 63 -27 74 -34 70 -8 -5 10 -31 22 -94 25 -141 6 -75 4 -93 -24 -183 -25
-79 -46 -121 -102 -204 -38 -58 -86 -122 -106 -142 -48 -50 -127 -88 -182 -88
-93 0 -274 60 -380 127 -29 18 -54 33 -56 33 -7 0 6 -95 20 -155 8 -33 26 -91
40 -128 l26 -68 101 -49 c106 -51 317 -120 367 -120 16 0 40 4 55 10 48 18
229 163 350 280 107 103 132 122 232 173 109 56 335 198 381 241 33 29 64 94
118 243 52 142 77 197 132 281 l37 57 0 225 0 225 -70 100 c-196 283 -250 377
-420 744 -156 337 -223 498 -379 911 -35 91 -78 194 -96 229 -17 36 -49 121
-70 190 -84 277 -163 443 -276 577 -68 80 -74 84 -98 71 -11 -7 -24 -16 -28
-22 -7 -9 -10 0 -7 21 0 4 -5 10 -11 14 -18 11 -2 50 21 50 22 0 25 22 6 39
-11 8 -19 5 -35 -12 -12 -13 -19 -27 -15 -31 4 -4 -4 -3 -17 2 -25 10 -30 40
-8 53 5 3 -6 6 -24 6 -18 0 -25 -2 -15 -4 9 -3 17 -12 17 -21 0 -11 -3 -13 -8
-6 -4 6 -13 13 -21 16 -17 5 -24 38 -8 38 5 0 7 3 4 6 -4 4 -13 1 -21 -6 -12
-10 -21 -8 -43 8 -34 24 -93 54 -93 48 0 -3 18 -15 40 -27 21 -12 37 -26 34
-31 -3 -5 -2 -8 3 -7 20 3 27 -2 13 -11 -11 -7 -11 -10 -2 -10 7 0 10 -4 7
-10 -3 -6 1 -7 10 -3 13 5 14 7 3 14 -9 6 -9 9 -1 9 15 0 31 -28 28 -49 -1 -9
0 -10 2 -3 7 20 26 14 62 -19 l34 -31 -18 -54 c-10 -30 -21 -54 -25 -54 -4 0
-7 -6 -7 -12 0 -7 -29 -83 -66 -168 -111 -262 -172 -410 -217 -528 -24 -62
-45 -110 -48 -108 -5 5 28 104 77 230 17 43 28 82 26 87 -3 4 1 10 7 12 9 4 9
6 -1 6 -11 1 -10 5 5 17 10 8 13 12 5 8 -11 -5 -13 -3 -8 10 4 10 7 26 7 37 0
10 7 19 15 19 16 0 59 80 48 90 -3 3 -8 -1 -10 -8 -3 -6 -9 -10 -13 -7 -5 3
-7 -6 -4 -21 3 -16 1 -23 -6 -19 -6 3 -7 0 -4 -9 3 -9 1 -16 -5 -16 -6 0 -11
5 -11 11 0 5 -5 7 -10 4 -6 -4 -8 -11 -5 -16 4 -5 2 -9 -3 -9 -5 0 -7 -12 -5
-27 3 -20 2 -24 -5 -15 -9 14 -10 7 -12 -83 -1 -27 -2 -28 -12 -10 -13 23 -28
35 -43 34 -5 0 -4 -3 3 -6 6 -2 12 -9 12 -14 0 -6 -4 -7 -10 -4 -5 3 -10 1
-10 -5 0 -7 7 -9 17 -6 17 7 33 -9 33 -34 0 -12 -2 -12 -9 -2 -9 15 -61 6 -61
-10 0 -5 4 -6 10 -3 6 4 7 -1 4 -12 -4 -13 0 -11 14 6 l20 25 -3 -35 c-2 -19
-3 -38 -4 -44 -1 -5 -12 4 -26 20 -18 22 -24 25 -25 13 0 -9 -6 -19 -12 -21
-7 -3 -3 -6 8 -6 17 -1 23 -9 27 -33 3 -18 1 -37 -3 -42 -5 -4 -8 -2 -7 5 1
39 -4 59 -18 59 -9 0 -12 -6 -9 -15 5 -11 2 -14 -12 -9 -16 6 -17 5 -6 -7 14
-16 16 -33 2 -24 -5 3 -10 0 -10 -9 0 -8 6 -17 13 -19 6 -3 3 -6 -9 -6 -11 -1
-26 -7 -33 -13 -13 -13 -12 -8 5 40 10 25 15 72 8 72 -3 0 -12 -7 -21 -16 -24
-24 -37 -2 -36 61 0 34 -4 55 -11 55 -6 0 -4 5 4 10 13 8 12 10 -3 10 -14 0
-16 4 -9 16 6 10 6 33 0 56 -4 22 -6 43 -3 49 4 5 0 9 -7 9 -9 1 -7 5 4 14 10
7 15 16 12 19 -3 3 -8 29 -11 56 -4 46 -2 52 19 60 l23 10 -24 0 c-19 1 -22 4
-13 13 8 8 5 14 -14 24 -28 15 -74 1 -74 -23 0 -7 -4 -13 -8 -13 -8 0 -37 -80
-32 -89 1 -2 -4 -8 -12 -12 -8 -5 -8 -9 -2 -9 8 0 8 -15 -1 -54 -7 -29 -11
-65 -10 -80 2 -14 -1 -26 -6 -26 -6 0 -7 -6 -2 -12 12 -20 14 -46 3 -53 -5 -3
-5 -16 0 -33 5 -15 11 -47 14 -72 5 -48 11 -93 25 -179 5 -32 5 -68 -1 -89 -5
-19 -11 -44 -14 -55 -2 -11 -8 -25 -13 -30 -14 -14 -144 -26 -159 -14 -8 7
-18 5 -30 -5 -9 -9 -25 -14 -34 -13 -10 2 -20 -1 -24 -6 -8 -14 -26 -11 -19 4
4 6 0 4 -9 -7 -8 -10 -22 -16 -31 -13 -11 5 -15 0 -16 -16 0 -19 -1 -20 -8 -4
-8 22 -21 24 -31 6 -6 -9 -12 -8 -24 4 -21 20 -21 27 -4 38 8 5 9 9 2 9 -30 0
-54 128 -26 138 6 2 8 11 5 19 -5 12 -2 15 9 10 10 -3 19 0 22 9 9 22 7 26 -6
18 -7 -4 -8 -3 -4 4 4 7 14 12 22 12 8 0 12 5 9 10 -6 10 5 13 40 11 15 -2 17
0 6 7 -18 13 -5 33 17 25 15 -6 15 -5 3 10 -8 11 -9 17 -3 17 17 0 31 62 18
79 -9 11 -6 12 14 6 24 -8 24 -8 7 19 -11 16 -13 26 -6 26 8 0 8 4 -1 15 -7 9
-10 18 -7 22 4 3 1 15 -4 26 -8 14 -8 22 2 28 10 6 10 10 0 23 -7 8 -10 20 -7
25 4 5 2 12 -3 16 -6 3 -9 83 -7 207 3 195 2 203 -19 224 -11 11 -27 23 -35
26 -12 4 -11 24 8 129 19 110 105 456 116 467 4 4 54 -18 150 -64 16 -8 31
-12 33 -10 2 2 -36 23 -84 46 -48 23 -90 43 -92 45 -1 2 5 26 14 54 11 33 22
51 33 51 15 0 15 1 0 13 -9 6 -18 21 -21 32 -3 11 -5 18 -6 15z m965 -729 c-4
-6 -12 -11 -18 -11 -7 0 -6 6 2 15 9 10 9 15 1 15 -6 0 -11 5 -11 12 0 8 6 7
16 -4 9 -9 13 -21 10 -27z m-1455 -59 c-7 -2 -18 1 -23 6 -8 8 -4 9 13 5 13
-4 18 -8 10 -11z m142 -28 c20 -3 40 -11 44 -17 4 -7 0 -8 -11 -4 -10 4 -35
10 -57 13 -22 4 -42 11 -45 16 -4 6 1 8 12 5 11 -3 36 -9 57 -13z m757 -734
c0 -5 -5 -10 -11 -10 -5 0 -7 5 -4 10 3 6 8 10 11 10 2 0 4 -4 4 -10z m-577
-547 c-34 -2 -93 -2 -130 0 -37 2 -9 3 62 3 72 0 102 -1 68 -3z m357 -12 c0
-6 -10 -8 -21 -6 -33 6 -36 15 -6 15 15 0 27 -4 27 -9z m-445 -61 c-3 -5 -16
-10 -28 -9 -20 1 -20 2 3 9 14 4 26 8 28 9 2 1 0 -3 -3 -9z m411 -12 c4 -7 3
-8 -4 -4 -7 4 -12 0 -12 -10 0 -10 -3 -15 -6 -11 -7 6 2 37 10 37 3 0 8 -5 12
-12z m534 -108 c0 -5 -2 -10 -4 -10 -3 0 -8 5 -11 10 -3 6 -1 10 4 10 6 0 11
-4 11 -10z m-2330 -360 c0 -5 -4 -10 -10 -10 -5 0 -10 5 -10 10 0 6 5 10 10
10 6 0 10 -4 10 -10z m90 -20 c0 -5 -4 -10 -9 -10 -6 0 -13 5 -16 10 -3 6 1
10 9 10 9 0 16 -4 16 -10z m3070 -65 c0 -8 -4 -15 -10 -15 -5 0 -7 7 -4 15 4
8 8 15 10 15 2 0 4 -7 4 -15z m50 -15 c0 -5 -7 -10 -16 -10 -8 0 -12 5 -9 10
3 6 10 10 16 10 5 0 9 -4 9 -10z m-172 -29 c10 -6 10 -11 -3 -21 -14 -12 -18
-11 -25 0 -15 24 2 38 28 21z m-2351 -7 c-3 -3 -12 -4 -19 -1 -8 3 -5 6 6 6
11 1 17 -2 13 -5z m2493 -4 c0 -5 -2 -10 -4 -10 -3 0 -8 5 -11 10 -3 6 -1 10
4 10 6 0 11 -4 11 -10z m56 -16 c-4 -9 -9 -15 -11 -12 -3 3 -3 13 1 22 4 9 9
15 11 12 3 -3 3 -13 -1 -22z m10 -49 c-3 -8 0 -16 7 -17 7 0 17 -2 22 -3 6 -2
17 -3 25 -4 9 -2 6 -6 -9 -12 -16 -6 -28 -6 -37 2 -10 8 -14 8 -14 0 0 -6 5
-11 11 -11 6 0 8 -7 5 -15 -3 -9 0 -18 7 -21 15 -5 20 -44 6 -44 -5 0 -9 9 -9
19 0 11 -9 22 -20 26 -19 6 -22 28 -7 53 5 6 4 12 -2 12 -6 0 -8 7 -5 15 4 8
11 15 16 15 6 0 8 -7 4 -15z m34 0 c0 -8 -4 -15 -10 -15 -5 0 -10 7 -10 15 0
8 5 15 10 15 6 0 10 -7 10 -15z m-2187 -40 c-3 -9 -8 -14 -10 -11 -3 3 -2 9 2
15 9 16 15 13 8 -4z m2222 -15 c3 -5 0 -10 -9 -10 -8 0 -22 -3 -32 -7 -16 -6
-17 -5 -4 10 17 19 36 22 45 7z m-2318 -22 c-3 -8 -6 -5 -6 6 -1 11 2 17 5 13
3 -3 4 -12 1 -19z m2378 2 c3 -6 -1 -7 -9 -4 -18 7 -21 14 -7 14 6 0 13 -4 16
-10z m-52 -7 c-7 -2 -19 -2 -25 0 -7 3 -2 5 12 5 14 0 19 -2 13 -5z m-2153
-34 c0 -5 -11 -9 -25 -9 -14 0 -25 4 -25 9 0 5 11 9 25 9 14 0 25 -4 25 -9z
m1980 -23 c0 -3 -4 -8 -10 -11 -5 -3 -10 -1 -10 4 0 6 5 11 10 11 6 0 10 -2
10 -4z m-93 -283 c-3 -2 -14 0 -24 7 -16 10 -16 11 0 6 9 -3 17 0 18 7 0 8 2
8 6 -1 3 -7 3 -16 0 -19z m-37 -13 c-13 -9 -13 -10 0 -11 9 0 11 -2 3 -5 -7
-3 -9 -13 -6 -22 4 -13 3 -14 -5 -3 -13 18 -31 6 -25 -18 7 -27 -29 -33 -58
-10 l-24 19 28 -10 c35 -13 33 -13 35 5 1 8 3 22 4 30 1 10 8 13 20 9 10 -3
18 -2 17 3 -3 16 1 23 14 23 8 0 7 -4 -3 -10z m-60 -40 c0 -5 -4 -10 -10 -10
-5 0 -10 5 -10 10 0 6 5 10 10 10 6 0 10 -4 10 -10z m-27 -62 c-9 -14 -43 -21
-43 -8 0 7 43 30 48 25 2 -2 0 -9 -5 -17z m-2062 -111 c-10 -9 -11 -8 -5 6 3
10 9 15 12 12 3 -3 0 -11 -7 -18z m-91 9 c0 -3 -4 -8 -10 -11 -5 -3 -10 -1
-10 4 0 6 5 11 10 11 6 0 10 -2 10 -4z m110 -56 c0 -5 -4 -10 -10 -10 -5 0
-10 -7 -10 -17 0 -9 -3 -14 -6 -10 -8 8 5 47 17 47 5 0 9 -4 9 -10z m-66 -35
c3 -8 1 -15 -4 -15 -6 0 -10 7 -10 15 0 8 2 15 4 15 2 0 6 -7 10 -15z m-1172
-84 c73 -47 108 -113 108 -208 0 -79 -47 -159 -119 -201 -38 -22 -58 -27 -111
-26 -92 1 -152 38 -194 121 -26 53 -22 168 10 231 40 81 91 110 200 111 50 1
68 -4 106 -28z m3655 -33 c-3 -8 -6 -5 -6 6 -1 11 2 17 5 13 3 -3 4 -12 1 -19z
m-2517 2 c0 -5 -5 -10 -11 -10 -5 0 -7 5 -4 10 3 6 8 10 11 10 2 0 4 -4 4 -10z
m-40 -260 c0 -5 -2 -10 -4 -10 -3 0 -8 5 -11 10 -3 6 -1 10 4 10 6 0 11 -4 11
-10z m2641 -57 c-10 -17 -10 -16 -11 3 0 23 13 41 18 25 2 -6 -1 -18 -7 -28z
m-2641 -13 c0 -22 -4 -40 -8 -40 -5 0 -8 10 -6 23 1 12 3 30 3 40 2 35 11 16
11 -23z m105 22 c-3 -3 -11 0 -18 7 -9 10 -8 11 6 5 10 -3 15 -9 12 -12z m-50
-12 c4 -11 15 -20 26 -20 18 0 19 -2 5 -15 -8 -8 -25 -19 -38 -25 -17 -7 -12
-8 21 -3 31 4 42 3 37 -5 -4 -6 -14 -8 -22 -5 -9 3 -19 1 -23 -6 -10 -15 -41
-3 -41 15 0 8 5 14 11 14 6 0 3 7 -5 16 -19 19 -20 26 -4 42 17 17 26 15 33
-8z m2225 11 c0 -5 -7 -12 -16 -15 -14 -5 -15 -4 -4 9 14 17 20 19 20 6z m400
-16 c0 -8 -4 -15 -10 -15 -5 0 -7 7 -4 15 4 8 8 15 10 15 2 0 4 -7 4 -15z
m-224 -41 c-19 -18 -21 -11 -4 19 7 14 13 17 15 10 3 -7 -3 -20 -11 -29z
m-2371 -53 c6 -1 -5 -9 -22 -17 -18 -9 -33 -20 -33 -25 0 -5 -4 -9 -10 -9 -16
0 1 30 19 31 14 1 14 2 -1 6 -10 2 -18 8 -18 12 0 6 20 6 65 2z m3 -87 c-3 -3
-15 -6 -26 -7 -17 -1 -18 -4 -8 -22 6 -11 16 -23 21 -27 6 -5 6 -8 -2 -8 -14
0 -6 -97 9 -117 5 -7 7 -17 3 -23 -3 -5 -3 -15 0 -21 4 -5 8 -32 10 -59 2 -42
0 -47 -12 -34 -8 8 -21 14 -29 14 -17 0 -18 22 -2 38 9 9 9 12 1 12 -14 0 -18
-7 -27 -42 -6 -25 -4 -28 18 -28 13 0 26 -6 29 -14 7 -17 -1 -26 -22 -26 -13
0 -13 2 -3 9 11 7 11 9 -2 14 -10 4 -16 1 -16 -8 0 -8 -7 -15 -15 -15 -8 0
-15 5 -15 10 0 6 4 10 10 10 6 0 6 9 1 22 -4 13 -5 34 -1 48 4 14 4 33 1 42
-3 9 -5 67 -3 128 3 112 3 112 27 108 13 -3 29 -1 37 3 13 8 26 3 16 -7z m2
-24 c0 -5 -4 -10 -10 -10 -5 0 -10 5 -10 10 0 6 5 10 10 10 6 0 10 -4 10 -10z
m-449 -67 c-22 -4 -23 -8 -19 -54 4 -41 2 -49 -9 -45 -8 4 -23 6 -34 6 -10 0
-19 4 -19 9 0 4 11 6 25 3 24 -4 25 -2 25 42 0 44 1 46 28 45 25 -2 25 -2 3
-6z m446 -50 c-3 -10 -5 -4 -5 12 0 17 2 24 5 18 2 -7 2 -21 0 -30z m-500 -10
c-3 -10 -5 -4 -5 12 0 17 2 24 5 18 2 -7 2 -21 0 -30z m-177 -13 c0 -5 -2 -10
-4 -10 -3 0 -8 5 -11 10 -3 6 -1 10 4 10 6 0 11 -4 11 -10z m-110 -10 c0 -5
-4 -10 -10 -10 -5 0 -10 5 -10 10 0 6 5 10 10 10 6 0 10 -4 10 -10z m-210 -10
c0 -5 -4 -10 -10 -10 -5 0 -10 5 -10 10 0 6 5 10 10 10 6 0 10 -4 10 -10z
m450 -35 c0 -36 -3 -45 -17 -45 -10 0 -14 4 -8 8 6 4 10 21 10 37 0 17 1 33 3
38 8 17 12 4 12 -38z m-300 25 c8 -5 11 -10 5 -10 -5 0 -17 5 -25 10 -8 5 -10
10 -5 10 6 0 17 -5 25 -10z m-205 -20 c-3 -5 -11 -10 -16 -10 -6 0 -7 5 -4 10
3 6 11 10 16 10 6 0 7 -4 4 -10z m135 -11 c0 -11 -4 -17 -10 -14 -5 3 -10 13
-10 21 0 8 5 14 10 14 6 0 10 -9 10 -21z m238 -40 c-22 -15 12 -30 52 -24 34
6 34 5 10 -8 -26 -14 -70 -11 -70 4 0 5 -9 9 -20 9 -27 0 -25 18 3 22 16 2 23
11 26 33 l5 30 4 -29 c2 -17 -2 -32 -10 -37z m222 51 c0 -5 -2 -10 -4 -10 -3
0 -8 5 -11 10 -3 6 -1 10 4 10 6 0 11 -4 11 -10z m50 -2 c0 -4 -4 -8 -10 -8
-5 0 -12 -16 -16 -35 -9 -49 -18 -36 -9 13 4 24 12 39 21 39 8 0 14 -4 14 -9z
m-228 -23 c3 -15 1 -25 -6 -25 -6 0 -12 11 -12 25 -2 32 12 32 18 0z m-346
-53 c-3 -3 -6 2 -6 11 0 10 -4 17 -9 17 -5 0 -6 10 -3 23 5 20 7 19 14 -12 5
-18 7 -36 4 -39z m397 44 c-6 -10 -13 -12 -23 -6 -13 8 -12 10 3 10 9 0 17 5
17 12 0 6 3 9 6 5 3 -3 2 -12 -3 -21z m-433 3 c0 -5 -13 -9 -30 -9 -39 0 -39
15 0 16 17 1 30 -3 30 -7z m-286 -15 c9 -24 2 -26 -12 -4 -7 11 -8 20 -3 20 5
0 12 -7 15 -16z m356 -5 c0 -6 -4 -7 -10 -4 -5 3 -10 11 -10 16 0 6 5 7 10 4
6 -3 10 -11 10 -16z m-150 7 c0 -3 -4 -8 -10 -11 -5 -3 -10 -1 -10 4 0 6 5 11
10 11 6 0 10 -2 10 -4z m1224 -21 c-19 -29 -27 -31 -43 -11 -9 11 -9 16 0 22
7 4 9 3 5 -4 -13 -21 16 -24 30 -3 21 30 28 26 8 -4z m-1193 -12 c-8 -15 -10
-15 -11 -2 0 17 10 32 18 25 2 -3 -1 -13 -7 -23z m609 -8 c0 -19 -4 -35 -10
-35 -5 0 -10 16 -10 35 0 19 5 35 10 35 6 0 10 -16 10 -35z m-31 -7 c-1 -31
-1 -31 -8 -8 -5 14 -6 28 -4 33 9 15 13 6 12 -25z m-654 -7 c-3 -6 -11 -11
-16 -11 -5 0 -4 6 3 14 14 16 24 13 13 -3z m-131 -16 c3 -8 1 -15 -4 -15 -6 0
-10 7 -10 15 0 8 2 15 4 15 2 0 6 -7 10 -15z m856 -31 c0 -17 -6 -24 -17 -23
-11 0 -13 3 -5 6 14 6 16 43 2 43 -5 0 -10 5 -10 11 0 8 5 8 15 -1 8 -7 15
-23 15 -36z m-733 4 c-3 -8 -6 -5 -6 6 -1 11 2 17 5 13 3 -3 4 -12 1 -19z
m-77 2 c0 -5 -2 -10 -4 -10 -3 0 -8 5 -11 10 -3 6 -1 10 4 10 6 0 11 -4 11
-10z m780 0 c-20 -13 -50 -13 -50 0 0 6 15 10 33 10 24 0 28 -3 17 -10z m-825
-30 c0 -8 -9 -16 -20 -19 -16 -3 -17 -1 -7 12 10 12 10 16 0 21 -7 3 -4 5 7 3
11 -1 20 -9 20 -17z m121 -20 c8 0 14 -4 14 -9 0 -5 -9 -7 -20 -4 -13 3 -20
13 -19 27 1 17 2 17 6 4 2 -10 11 -18 19 -18z m19 20 c3 -5 1 -10 -4 -10 -6 0
-11 5 -11 10 0 6 2 10 4 10 3 0 8 -4 11 -10z m1105 6 c0 -9 -39 -13 -51 -5
-10 6 -4 9 19 9 17 0 32 -2 32 -4z m10 -26 c-19 -13 -30 -13 -30 0 0 6 10 10
23 10 18 0 19 -2 7 -10z m-1180 -30 c0 -5 -4 -10 -10 -10 -5 0 -10 5 -10 10 0
6 5 10 10 10 6 0 10 -4 10 -10z m40 -15 c0 -14 -4 -25 -8 -25 -4 0 -9 11 -10
25 -1 14 3 25 8 25 6 0 10 -11 10 -25z m25 5 c3 -5 1 -10 -4 -10 -6 0 -11 5
-11 10 0 6 2 10 4 10 3 0 8 -4 11 -10z m720 0 c3 -5 1 -10 -4 -10 -6 0 -11 5
-11 10 0 6 2 10 4 10 3 0 8 -4 11 -10z m-835 -4 c0 -3 -4 -8 -10 -11 -5 -3
-10 -1 -10 4 0 6 5 11 10 11 6 0 10 -2 10 -4z m1143 -11 c-3 -9 -8 -14 -10
-11 -3 3 -2 9 2 15 9 16 15 13 8 -4z m-278 -14 c-8 -14 -75 -15 -75 -1 0 5 13
7 29 4 17 -4 32 -1 36 6 4 6 9 9 12 6 3 -2 2 -9 -2 -15z m-815 -1 c0 -5 -4
-10 -10 -10 -5 0 -10 5 -10 10 0 6 5 10 10 10 6 0 10 -4 10 -10z m-37 -35 c-5
-25 -7 -27 -13 -10 -4 11 -3 26 3 33 14 17 16 12 10 -23z m130 6 c7 -33 -2
-101 -13 -101 -4 0 -7 18 -7 41 0 28 3 37 9 27 7 -9 8 -5 4 12 -3 14 -6 28 -6
32 0 3 -8 9 -17 11 -14 4 -14 5 3 6 16 1 23 -6 27 -28z m1114 23 c-3 -3 -12
-4 -19 -1 -8 3 -5 6 6 6 11 1 17 -2 13 -5z m-417 -18 c0 -3 -4 -8 -10 -11 -5
-3 -10 -1 -10 4 0 6 5 11 10 11 6 0 10 -2 10 -4z m387 -2 c-3 -3 -12 -4 -19
-1 -8 3 -5 6 6 6 11 1 17 -2 13 -5z m31 -26 c1 -23 -1 -29 -7 -19 -7 11 -8 29
-2 49 3 10 7 -3 9 -30z m-371 -25 c-3 -10 -5 -2 -5 17 0 19 2 27 5 18 2 -10 2
-26 0 -35z m-775 12 c3 -14 1 -25 -3 -25 -5 0 -9 9 -9 19 0 11 -6 22 -12 24
-8 4 -7 6 3 6 10 1 19 -9 21 -24z m-139 0 c-4 -14 -33 -14 -33 0 0 7 8 12 18
11 9 -2 16 -7 15 -11z m46 -52 c1 -7 -6 -13 -15 -13 -10 0 -12 4 -7 13 4 6 7
21 5 32 l-2 20 9 -20 c5 -11 10 -26 10 -32z m68 41 c-3 -3 -12 -4 -19 -1 -8 3
-5 6 6 6 11 1 17 -2 13 -5z m-40 -10 c-3 -3 -12 -4 -19 -1 -8 3 -5 6 6 6 11 1
17 -2 13 -5z m0 -36 c-3 -8 -6 -5 -6 6 -1 11 2 17 5 13 3 -3 4 -12 1 -19z m30
-20 c-3 -8 -6 -5 -6 6 -1 11 2 17 5 13 3 -3 4 -12 1 -19z m43 -13 c-22 -13
-23 -14 -5 -15 17 0 17 -2 5 -10 -8 -5 -11 -10 -7 -10 5 0 5 -5 1 -12 -5 -8
-11 -2 -15 17 -10 35 -4 45 24 45 21 -1 21 -1 -3 -15z m650 -55 c0 -5 -5 -10
-11 -10 -5 0 -7 5 -4 10 3 6 8 10 11 10 2 0 4 -4 4 -10z m-760 -60 c0 -5 -2
-10 -4 -10 -3 0 -8 5 -11 10 -3 6 -1 10 4 10 6 0 11 -4 11 -10z m9 -44 c-9 -8
-10 -7 -5 7 3 10 7 24 7 30 1 7 3 4 6 -7 3 -10 -1 -23 -8 -30z m-32 -18 c-3
-8 -6 -5 -6 6 -1 11 2 17 5 13 3 -3 4 -12 1 -19z m153 12 c0 -5 -4 -10 -10
-10 -5 0 -10 5 -10 10 0 6 5 10 10 10 6 0 10 -4 10 -10z m565 0 c-3 -5 -10
-10 -16 -10 -5 0 -9 5 -9 10 0 6 7 10 16 10 8 0 12 -4 9 -10z m-630 -30 c3 -5
1 -10 -4 -10 -6 0 -11 5 -11 10 0 6 2 10 4 10 3 0 8 -4 11 -10z m22 -12 c-3
-8 -6 -5 -6 6 -1 11 2 17 5 13 3 -3 4 -12 1 -19z m110 0 c-3 -8 -6 -5 -6 6 -1
11 2 17 5 13 3 -3 4 -12 1 -19z m-217 2 c0 -5 -4 -10 -10 -10 -5 0 -10 5 -10
10 0 6 5 10 10 10 6 0 10 -4 10 -10z m737 -25 c0 -8 -4 -15 -8 -15 -4 0 -9 7
-13 15 -3 9 0 15 8 15 7 0 13 -7 13 -15z m-720 -21 c-9 -9 -28 6 -21 18 4 6
10 6 17 -1 6 -6 8 -13 4 -17z m80 20 c-3 -3 -12 -4 -19 -1 -8 3 -5 6 6 6 11 1
17 -2 13 -5z m-20 -20 c-3 -3 -12 -4 -19 -1 -8 3 -5 6 6 6 11 1 17 -2 13 -5z
m3 -24 c0 -5 -12 -10 -27 -9 l-28 1 25 8 c14 4 26 8 28 9 1 1 2 -3 2 -9z m801
-66 c-7 -23 -9 -25 -10 -7 -1 12 -4 23 -8 26 -5 2 -2 2 5 1 6 -2 12 2 12 8 0
6 2 9 5 7 2 -3 0 -18 -4 -35z m-114 7 c0 -11 -5 -18 -9 -15 -4 3 -5 11 -1 19
7 21 12 19 10 -4z m-403 -12 c-3 -6 -19 -9 -35 -7 -15 2 -27 0 -26 -5 3 -12
-41 -28 -48 -17 -3 5 5 16 17 24 26 18 103 22 92 5z m56 1 c0 -5 -4 -10 -9
-10 -6 0 -13 5 -16 10 -3 6 1 10 9 10 9 0 16 -4 16 -10z m90 6 c0 -2 -11 -6
-25 -8 -13 -3 -22 -1 -19 3 5 9 44 13 44 5z m-270 -10 c0 -3 -4 -8 -10 -11 -5
-3 -10 -1 -10 4 0 6 5 11 10 11 6 0 10 -2 10 -4z m540 -61 c0 -1 -9 -5 -19 -8
-13 -3 -18 -1 -14 9 4 10 33 10 33 -1z m71 -22 c-12 -20 -14 -14 -5 12 4 9 9
14 11 11 3 -2 0 -13 -6 -23z m-566 -11 c-3 -3 -11 0 -18 7 -9 10 -8 11 6 5 10
-3 15 -9 12 -12z m112 -4 c-3 -8 -6 -5 -6 6 -1 11 2 17 5 13 3 -3 4 -12 1 -19z
m-105 -30 c-11 -11 -32 -3 -32 12 0 4 9 6 21 3 13 -4 17 -9 11 -15z m-42 -8
c0 -5 -4 -10 -10 -10 -5 0 -10 5 -10 10 0 6 5 10 10 10 6 0 10 -4 10 -10z m34
-52 c16 -11 -6 -10 -23 1 -8 5 -10 14 -5 22 6 10 9 10 12 -1 3 -8 10 -18 16
-22z m317 1 c-9 -22 -10 -22 -10 -3 -1 11 2 24 6 27 12 12 14 0 4 -24z m58 -8
c-1 -13 -2 -13 -6 2 -2 9 -9 17 -14 17 -5 0 -9 5 -9 11 0 8 5 8 15 -1 8 -7 14
-20 14 -29z m-632 7 c-3 -8 -6 -5 -6 6 -1 11 2 17 5 13 3 -3 4 -12 1 -19z
m469 3 c0 -11 -4 -17 -8 -15 -4 3 -8 12 -8 20 0 8 4 14 8 14 4 0 8 -9 8 -19z
m-349 -23 c-3 -7 -5 -2 -5 12 0 14 2 19 5 13 2 -7 2 -19 0 -25z m131 -29 c11
0 13 -2 4 -6 -22 -9 -42 5 -35 24 7 17 8 17 11 1 2 -10 11 -18 20 -19z m219 5
c-3 -3 -12 -4 -19 -1 -8 3 -5 6 6 6 11 1 17 -2 13 -5z m170 -16 c-3 -8 -6 -5
-6 6 -1 11 2 17 5 13 3 -3 4 -12 1 -19z m-397 -17 c0 -6 -4 -13 -10 -16 -5 -3
-10 1 -10 9 0 9 5 16 10 16 6 0 10 -4 10 -9z m0 -52 c0 -6 -4 -7 -10 -4 -5 3
-10 11 -10 16 0 6 5 7 10 4 6 -3 10 -11 10 -16z m-203 -61 c-2 -13 -4 -3 -4
22 0 25 2 35 4 23 2 -13 2 -33 0 -45z m193 32 c0 -5 -4 -10 -10 -10 -5 0 -10
5 -10 10 0 6 5 10 10 10 6 0 10 -4 10 -10z m247 -22 c-3 -8 -6 -5 -6 6 -1 11
2 17 5 13 3 -3 4 -12 1 -19z m-110 -60 c-3 -8 -6 -5 -6 6 -1 11 2 17 5 13 3
-3 4 -12 1 -19z m-332 2 c-3 -5 -14 -10 -23 -9 -14 0 -13 2 3 9 27 11 27 11
20 0z m35 -24 c0 -2 -13 -6 -30 -8 -16 -3 -30 -1 -30 4 0 4 14 8 30 8 17 0 30
-2 30 -4z m327 -2 c-3 -3 -12 -4 -19 -1 -8 3 -5 6 6 6 11 1 17 -2 13 -5z m71
-1 c-10 -2 -26 -2 -35 0 -10 3 -2 5 17 5 19 0 27 -2 18 -5z m-468 -33 c0 -5
-5 -10 -11 -10 -5 0 -7 5 -4 10 3 6 8 10 11 10 2 0 4 -4 4 -10z m468 -17 c-10
-2 -26 -2 -35 0 -10 3 -2 5 17 5 19 0 27 -2 18 -5z m100 -7 c-7 -8 -15 -12
-17 -11 -5 6 10 25 20 25 5 0 4 -6 -3 -14z m-494 -3 c-5 -5 -12 -12 -16 -18
-4 -6 -8 -2 -8 8 0 9 7 17 17 17 9 0 12 -3 7 -7z m153 1 c-3 -3 -12 -4 -19 -1
-8 3 -5 6 6 6 11 1 17 -2 13 -5z m28 -14 c4 -6 -6 -10 -22 -9 -25 0 -26 1 -8
9 11 5 21 9 22 9 1 1 5 -3 8 -9z m403 -7 c-10 -2 -26 -2 -35 0 -10 3 -2 5 17
5 19 0 27 -2 18 -5z m-638 -13 c0 -5 -7 -10 -16 -10 -8 0 -12 5 -9 10 3 6 10
10 16 10 5 0 9 -4 9 -10z m-40 -8 c0 -5 -7 -9 -15 -9 -8 0 -15 4 -15 9 0 4 7
8 15 8 8 0 15 -4 15 -8z m705 -2 c-33 -4 -82 -8 -110 -7 l-50 0 60 7 c33 4 83
7 110 7 l50 0 -60 -7z m-191 -9 c9 -14 -13 -17 -84 -14 -98 4 -102 6 -20 13
41 4 80 7 87 8 6 1 14 -2 17 -7z m-214 -17 c-36 -7 -190 -10 -190 -2 0 4 46 7
103 7 56 -1 95 -3 87 -5z m-330 -28 c9 -12 8 -15 -9 -13 -12 1 -21 7 -21 14 0
17 15 16 30 -1z m27 -8 c-3 -8 -6 -5 -6 6 -1 11 2 17 5 13 3 -3 4 -12 1 -19z"/>
<path d="M5391 2101 c-11 -20 0 -73 21 -98 11 -14 4 -15 -57 -12 l-70 4 -3
-59 -3 -59 43 7 c78 13 83 13 86 -12 2 -13 -4 -35 -13 -48 -15 -24 -15 -27 1
-45 23 -25 76 -25 99 1 20 22 14 63 -12 93 -15 16 -12 17 60 17 l77 0 0 38 c0
20 -3 48 -7 60 -5 21 -10 23 -37 18 -17 -4 -48 -9 -70 -13 l-38 -6 16 31 c21
40 21 88 0 96 -34 13 -83 6 -93 -13z m65 -145 c9 -22 1 -46 -12 -38 -6 4 -14
17 -18 30 -6 16 -3 22 9 22 8 0 18 -6 21 -14z"/>
<path d="M6691 1784 c0 -11 3 -14 6 -6 3 7 2 16 -1 19 -3 4 -6 -2 -5 -13z"/>
<path d="M6702 1545 c0 -16 2 -22 5 -12 2 9 2 23 0 30 -3 6 -5 -1 -5 -18z"/>
<path d="M6696 1444 c-19 -14 -19 -14 1 -14 12 0 23 -6 26 -12 2 -7 8 -9 13
-5 5 4 4 11 -2 15 -6 4 -13 12 -15 19 -3 8 -9 8 -23 -3z"/>
<path d="M6685 1380 c-3 -5 1 -10 9 -10 9 0 16 5 16 10 0 6 -4 10 -9 10 -6 0
-13 -4 -16 -10z"/>
<path d="M6721 1378 c0 -7 4 -22 9 -33 7 -17 9 -15 9 13 1 17 -3 32 -9 32 -5
0 -10 -6 -9 -12z"/>
<path d="M7064 5795 c-3 -8 -4 -20 -1 -27 4 -8 6 -6 6 5 1 9 6 17 11 17 6 0
10 5 10 10 0 15 -20 12 -26 -5z"/>
<path d="M5216 5783 c-6 -14 -5 -15 5 -6 7 7 10 15 7 18 -3 3 -9 -2 -12 -12z"/>
<path d="M6941 5778 c-1 -9 -7 -19 -13 -21 -8 -3 -6 -6 5 -6 9 -1 17 -7 17
-13 0 -9 3 -8 10 2 5 8 5 17 1 20 -4 3 -11 12 -14 20 -4 12 -6 12 -6 -2z"/>
<path d="M7018 5763 c7 -3 16 -2 19 1 4 3 -2 6 -13 5 -11 0 -14 -3 -6 -6z"/>
<path d="M6870 5750 c0 -5 7 -7 15 -4 8 4 15 8 15 10 0 2 -7 4 -15 4 -8 0 -15
-4 -15 -10z"/>
<path d="M3205 5734 l-60 -12 60 5 c33 3 62 7 64 9 11 10 -9 9 -64 -2z"/>
<path d="M7031 5734 c0 -11 3 -14 6 -6 3 7 2 16 -1 19 -3 4 -6 -2 -5 -13z"/>
<path d="M3711 5724 c0 -11 3 -14 6 -6 3 7 2 16 -1 19 -3 4 -6 -2 -5 -13z"/>
<path d="M5575 5720 c3 -5 8 -10 11 -10 2 0 4 5 4 10 0 6 -5 10 -11 10 -5 0
-7 -4 -4 -10z"/>
<path d="M3075 5699 c-54 -22 -75 -36 -35 -24 37 12 107 44 95 44 -5 0 -32 -9
-60 -20z"/>
<path d="M6306 5705 c-3 -8 -1 -15 4 -15 6 0 10 7 10 15 0 8 -2 15 -4 15 -2 0
-6 -7 -10 -15z"/>
<path d="M6340 5710 c0 -5 5 -10 10 -10 6 0 10 5 10 10 0 6 -4 10 -10 10 -5 0
-10 -4 -10 -10z"/>
<path d="M6390 5710 c0 -5 5 -10 10 -10 6 0 10 5 10 10 0 6 -4 10 -10 10 -5 0
-10 -4 -10 -10z"/>
<path d="M6560 5701 c0 -6 13 -14 30 -17 16 -4 27 -10 24 -15 -3 -5 4 -9 15
-9 33 0 24 18 -11 25 -18 4 -39 12 -45 17 -9 7 -13 7 -13 -1z"/>
<path d="M5596 5685 c4 -8 11 -15 16 -15 6 0 5 6 -2 15 -7 8 -14 15 -16 15 -2
0 -1 -7 2 -15z"/>
<path d="M5990 5689 c0 -5 5 -7 10 -4 6 3 10 8 10 11 0 2 -4 4 -10 4 -5 0 -10
-5 -10 -11z"/>
<path d="M6840 5689 c0 -5 5 -7 10 -4 6 3 10 8 10 11 0 2 -4 4 -10 4 -5 0 -10
-5 -10 -11z"/>
<path d="M5188 5673 c7 -3 16 -2 19 1 4 3 -2 6 -13 5 -11 0 -14 -3 -6 -6z"/>
<path d="M6881 5665 c-1 -11 -4 -31 -6 -45 -5 -22 -4 -22 4 -5 l10 20 1 -20
c1 -11 4 -15 6 -8 3 7 12 9 20 6 8 -3 14 0 14 6 0 6 -9 11 -19 11 -14 0 -21 8
-24 28 -3 17 -5 20 -6 7z"/>
<path d="M6578 5663 c7 -3 16 -2 19 1 4 3 -2 6 -13 5 -11 0 -14 -3 -6 -6z"/>
<path d="M2960 5650 c-8 -5 -10 -10 -5 -10 6 0 17 5 25 10 8 5 11 10 5 10 -5
0 -17 -5 -25 -10z"/>
<path d="M6840 5651 c0 -6 5 -13 10 -16 6 -3 10 1 10 9 0 9 -4 16 -10 16 -5 0
-10 -4 -10 -9z"/>
<path d="M6796 5635 c-3 -8 -1 -15 4 -15 6 0 10 7 10 15 0 8 -2 15 -4 15 -2 0
-6 -7 -10 -15z"/>
<path d="M6944 5623 c-4 -16 -11 -31 -17 -34 -5 -4 -5 -9 0 -12 5 -3 20 3 33
14 18 14 20 17 6 12 -16 -5 -18 -3 -12 20 3 15 4 27 1 27 -2 0 -8 -12 -11 -27z"/>
<path d="M6725 5630 c-4 -6 3 -10 14 -10 25 0 27 6 6 13 -8 4 -17 2 -20 -3z"/>
<path d="M5871 5614 c0 -11 3 -14 6 -6 3 7 2 16 -1 19 -3 4 -6 -2 -5 -13z"/>
<path d="M5636 5605 c4 -8 11 -15 16 -15 6 0 5 6 -2 15 -7 8 -14 15 -16 15 -2
0 -1 -7 2 -15z"/>
<path d="M5514 5596 c-3 -8 -4 -23 -2 -33 3 -11 6 -6 9 15 6 34 2 42 -7 18z"/>
<path d="M2824 5568 l-19 -23 23 19 c21 18 27 26 19 26 -2 0 -12 -10 -23 -22z"/>
<path d="M5597 5573 c-11 -10 -8 -43 4 -43 5 0 7 5 4 10 -3 6 -2 10 3 10 5 0
14 -12 21 -26 6 -15 14 -24 17 -22 4 5 -34 78 -40 78 -2 0 -6 -3 -9 -7z"/>
<path d="M5662 5555 c6 -14 13 -24 14 -22 6 6 -9 47 -17 47 -5 0 -3 -11 3 -25z"/>
<path d="M7757 5569 c7 -7 15 -10 18 -7 3 3 -2 9 -12 12 -14 6 -15 5 -6 -5z"/>
<path d="M6965 5560 c-3 -6 1 -7 9 -4 18 7 21 14 7 14 -6 0 -13 -4 -16 -10z"/>
<path d="M7720 5556 c0 -3 100 -55 223 -115 122 -61 213 -103 202 -95 -11 8
-108 58 -215 111 -107 53 -198 97 -202 100 -5 2 -8 2 -8 -1z"/>
<path d="M7798 5543 c7 -3 16 -2 19 1 4 3 -2 6 -13 5 -11 0 -14 -3 -6 -6z"/>
<path d="M5754 5531 c-2 -2 -4 -11 -4 -19 0 -13 2 -13 18 0 9 9 24 18 32 21 8
3 2 5 -13 4 -15 -1 -30 -3 -33 -6z"/>
<path d="M7870 5526 c0 -2 8 -10 18 -17 15 -13 16 -12 3 4 -13 16 -21 21 -21
13z"/>
<path d="M5594 5435 c0 -49 1 -71 3 -48 2 23 2 64 0 90 -2 26 -3 8 -3 -42z"/>
<path d="M7006 5503 c-6 -14 -5 -15 5 -6 7 7 10 15 7 18 -3 3 -9 -2 -12 -12z"/>
<path d="M2724 5494 c-18 -14 -18 -15 4 -4 12 6 22 13 22 15 0 8 -5 6 -26 -11z"/>
<path d="M7021 5474 c0 -11 3 -14 6 -6 3 7 2 16 -1 19 -3 4 -6 -2 -5 -13z"/>
<path d="M5870 5457 c0 -28 -25 -53 -60 -60 l-25 -4 27 -2 c18 -1 34 8 52 30
28 33 31 44 16 54 -6 3 -10 -4 -10 -18z"/>
<path d="M5676 5447 c3 -10 9 -15 12 -12 3 3 0 11 -7 18 -10 9 -11 8 -5 -6z"/>
<path d="M3762 5375 c0 -16 2 -22 5 -12 2 9 2 23 0 30 -3 6 -5 -1 -5 -18z"/>
<path d="M5242 5380 c0 -14 2 -19 5 -12 2 6 2 18 0 25 -3 6 -5 1 -5 -13z"/>
<path d="M8280 5311 c0 -6 6 -11 13 -11 8 0 7 -4 -3 -10 -9 -6 -10 -10 -3 -10
19 0 24 17 8 30 -10 9 -15 9 -15 1z"/>
<path d="M3772 5285 c0 -16 2 -22 5 -12 2 9 2 23 0 30 -3 6 -5 -1 -5 -18z"/>
<path d="M5580 5197 c0 -61 4 -107 9 -107 9 0 4 199 -5 209 -2 2 -4 -44 -4
-102z"/>
<path d="M5087 5283 c-4 -3 -7 -17 -7 -29 0 -13 -4 -26 -10 -29 -5 -3 -10 -17
-10 -30 0 -13 -5 -27 -11 -31 -6 -3 -9 -19 -7 -35 3 -15 1 -26 -3 -23 -7 4
-12 -12 -23 -71 -2 -11 -12 -47 -21 -80 -10 -33 -18 -70 -19 -82 0 -13 -5 -23
-11 -23 -5 0 -3 -5 5 -10 8 -5 10 -10 4 -10 -6 0 -11 -16 -12 -36 -1 -20 -7
-43 -13 -50 -7 -9 -8 -14 -1 -14 6 0 3 -14 -6 -32 -9 -18 -17 -55 -17 -83 -1
-29 -5 -49 -11 -48 -13 2 -14 -30 -1 -38 5 -4 5 -15 -2 -28 -9 -16 -9 -21 1
-21 7 0 5 -5 -6 -11 -13 -8 -15 -13 -6 -19 9 -5 9 -13 2 -26 -11 -19 10 -64
30 -64 6 0 2 12 -7 27 -13 19 -14 25 -3 21 10 -4 14 4 13 36 0 22 6 54 14 70
8 16 15 50 16 76 1 25 5 52 9 58 4 7 4 22 1 33 -4 13 -3 19 2 16 6 -4 10 9 11
28 1 20 6 44 12 55 6 11 8 25 5 30 -4 6 1 13 10 16 12 5 13 9 5 14 -8 5 -7 12
5 24 9 9 14 16 12 16 -3 0 2 28 10 63 8 34 17 71 18 82 2 11 13 60 24 108 28
118 27 180 -2 150z"/>
<path d="M6876 5261 c-3 -5 2 -15 12 -22 15 -12 16 -12 5 2 -7 9 -10 19 -6 22
3 4 4 7 0 7 -3 0 -8 -4 -11 -9z"/>
<path d="M3781 5214 c0 -11 3 -14 6 -6 3 7 2 16 -1 19 -3 4 -6 -2 -5 -13z"/>
<path d="M6873 5215 c0 -8 4 -12 9 -9 5 3 6 10 3 15 -9 13 -12 11 -12 -6z"/>
<path d="M8270 5210 c-9 -6 -10 -10 -3 -10 6 0 15 5 18 10 8 12 4 12 -15 0z"/>
<path d="M6898 5193 c7 -3 16 -2 19 1 4 3 -2 6 -13 5 -11 0 -14 -3 -6 -6z"/>
<path d="M8275 5180 c3 -5 8 -10 11 -10 2 0 4 5 4 10 0 6 -5 10 -11 10 -5 0
-7 -4 -4 -10z"/>
<path d="M6920 5166 c0 -9 -4 -14 -10 -11 -5 3 -10 1 -10 -4 0 -6 5 -11 10
-11 13 0 25 28 16 37 -3 4 -6 -1 -6 -11z"/>
<path d="M8340 5165 c-7 -8 -9 -15 -4 -15 4 0 3 -5 -4 -12 -7 -7 -12 -22 -12
-35 0 -13 -4 -23 -10 -23 -5 0 -7 -7 -4 -15 4 -8 2 -15 -3 -15 -5 0 -9 -8 -10
-17 -1 -10 -5 -33 -9 -51 -5 -27 -4 -31 9 -26 15 6 27 34 42 98 3 17 9 25 13
19 4 -6 7 15 7 48 0 32 -1 59 -1 59 -1 0 -7 -7 -14 -15z"/>
<path d="M3793 5164 c12 -12 -398 -93 -429 -84 -3 1 -15 -9 -26 -22 -24 -28
-19 -89 12 -140 16 -27 20 -50 20 -126 0 -96 22 -181 39 -153 10 15 15 8 25
-31 10 -43 36 -25 36 26 0 54 -11 69 -46 64 -25 -3 -30 1 -35 27 -4 17 -7 59
-7 95 l0 65 11 -48 12 -49 23 20 c14 13 51 25 95 32 174 29 260 49 268 62 7
10 9 10 9 -2 0 -8 3 -26 6 -40 4 -17 3 -21 -4 -12 -7 11 -23 11 -88 -3 -43 -9
-117 -23 -163 -30 -85 -14 -113 -27 -96 -44 10 -10 190 17 291 43 29 8 55 11
58 8 9 -8 7 -24 -2 -18 -9 6 2 -99 14 -129 4 -11 12 -23 17 -26 5 -4 4 -15 -3
-29 -9 -17 -9 -28 1 -51 15 -38 -1 -79 -32 -79 -14 0 -19 -5 -16 -14 3 -8 -1
-20 -9 -27 -8 -7 -11 -15 -7 -18 4 -3 14 -17 22 -31 13 -23 13 -24 -2 -11 -15
12 -17 11 -17 -2 0 -11 -6 -14 -15 -11 -8 4 -21 2 -28 -4 -6 -5 -30 -13 -52
-16 -74 -13 -116 -27 -110 -37 4 -5 11 -7 16 -4 9 6 223 45 247 45 7 0 12 -12
12 -28 0 -33 16 -58 49 -75 14 -7 26 -17 28 -22 4 -12 -162 -65 -202 -65 -14
0 -25 -6 -25 -13 0 -7 -9 -13 -19 -14 -10 -1 -45 -6 -77 -12 -62 -12 -68 -10
-79 28 -5 17 -4 22 6 18 8 -2 13 -11 11 -18 -2 -8 0 -11 4 -6 4 4 9 15 10 25
1 9 5 38 9 64 9 54 -11 97 -42 94 -14 -1 -22 16 -39 79 -12 44 -27 99 -33 123
-15 52 -41 58 -41 8 0 -48 64 -234 86 -251 11 -8 27 -15 37 -15 28 0 20 -29
-28 -92 -62 -83 -58 -123 19 -197 l36 -35 0 33 c0 22 4 30 12 25 8 -5 9 -2 5
10 -9 23 33 37 158 52 29 3 95 18 137 29 26 8 50 11 52 7 2 -4 16 -88 31 -187
32 -219 34 -225 52 -225 9 0 12 6 9 18 -3 9 -10 59 -16 111 -6 51 -14 110 -19
130 -8 39 5 59 60 94 59 36 33 125 -52 181 -21 15 -39 28 -39 30 0 2 7 17 15
32 8 16 15 47 16 69 0 22 4 62 8 89 10 58 -6 137 -37 190 -12 20 -17 38 -11
41 14 9 11 86 -5 116 -32 62 -51 137 -51 204 0 85 -18 131 -59 152 -17 8 -27
12 -23 7z m27 -35 c0 -6 -4 -7 -10 -4 -5 3 -10 11 -10 16 0 6 5 7 10 4 6 -3
10 -11 10 -16z m-110 -68 c-8 -5 -75 -21 -149 -36 -74 -14 -138 -28 -142 -31
-4 -2 -10 0 -13 5 -6 9 92 34 224 56 93 16 98 16 80 6z m-331 -73 c10 -30 9
-31 -4 -14 -8 11 -15 26 -15 33 0 22 8 14 19 -19z m186 2 c-18 -7 -18 -9 -3
-15 13 -5 16 -18 8 -45 -1 -3 -6 6 -11 20 l-10 24 -24 -29 c-18 -23 -20 -31
-9 -33 23 -5 16 -31 -10 -38 -43 -11 -58 -1 -72 46 -8 25 -14 48 -14 51 0 4
30 11 68 16 86 13 102 14 77 3z m-135 -130 c0 -11 -2 -20 -4 -20 -2 0 -6 9 -9
20 -3 11 -1 20 4 20 5 0 9 -9 9 -20z"/>
<path d="M8265 5150 c-3 -5 1 -10 9 -10 9 0 16 -5 16 -12 0 -6 2 -9 5 -6 7 7
-5 38 -15 38 -5 0 -12 -4 -15 -10z"/>
<path d="M8364 5149 c-3 -6 -2 -15 3 -20 5 -5 9 -1 10 11 2 22 -2 25 -13 9z"/>
<path d="M8247 5116 c-4 -10 0 -12 14 -9 10 3 16 9 13 14 -8 13 -21 11 -27 -5z"/>
<path d="M8295 5100 c3 -5 8 -10 11 -10 2 0 4 5 4 10 0 6 -5 10 -11 10 -5 0
-7 -4 -4 -10z"/>
<path d="M5580 5070 c0 -5 5 -10 11 -10 5 0 7 5 4 10 -3 6 -8 10 -11 10 -2 0
-4 -4 -4 -10z"/>
<path d="M8235 5070 c-3 -5 -1 -10 4 -10 6 0 11 5 11 10 0 6 -2 10 -4 10 -3 0
-8 -4 -11 -10z"/>
<path d="M5585 5019 c2 -19 6 -211 9 -428 3 -216 8 -396 12 -400 10 -9 -6 843
-16 853 -6 5 -7 -5 -5 -25z"/>
<path d="M8217 5023 c-7 -39 -1 -40 11 -4 6 17 7 31 3 31 -5 0 -11 -12 -14
-27z"/>
<path d="M5431 5023 c-1 -26 -54 -58 -79 -48 -13 5 -14 4 -5 -6 9 -9 19 -9 42
1 38 15 54 34 48 57 -4 14 -5 13 -6 -4z"/>
<path d="M5501 4974 c0 -11 3 -14 6 -6 3 7 2 16 -1 19 -3 4 -6 -2 -5 -13z"/>
<path d="M8247 4848 c-9 -31 -2 -33 11 -3 6 14 8 25 3 25 -5 0 -11 -10 -14
-22z"/>
<path d="M8083 4853 c3 -5 -3 -22 -14 -39 -25 -38 -25 -64 1 -64 23 0 24 -4
10 -30 -12 -22 0 -33 20 -19 12 7 12 9 1 9 -9 0 -10 4 -4 13 15 19 9 42 -10
41 -10 -1 -17 5 -17 17 0 11 4 19 9 19 13 0 20 49 8 57 -5 3 -7 2 -4 -4z"/>
<path d="M8040 4846 c0 -2 7 -7 16 -10 8 -3 12 -2 9 4 -6 10 -25 14 -25 6z"/>
<path d="M8346 4831 c-4 -7 -5 -15 -2 -18 9 -9 19 4 14 18 -4 11 -6 11 -12 0z"/>
<path d="M8100 4800 c-8 -15 -8 -20 3 -20 7 0 13 9 13 20 0 11 -1 20 -3 20 -1
0 -7 -9 -13 -20z"/>
<path d="M8182 4806 c7 -8 15 -12 17 -11 5 6 -10 25 -20 25 -5 0 -4 -6 3 -14z"/>
<path d="M2582 4785 c6 -14 13 -24 14 -22 6 6 -9 47 -17 47 -5 0 -3 -11 3 -25z"/>
<path d="M8220 4789 c-6 -11 -10 -25 -8 -30 2 -5 8 4 15 21 13 34 9 40 -7 9z"/>
<path d="M8046 4725 c-3 -8 0 -17 6 -21 6 -4 8 -3 4 4 -3 5 -1 12 6 14 8 3 9
6 1 11 -6 4 -13 0 -17 -8z"/>
<path d="M8053 4655 c0 -30 12 -32 27 -6 14 27 13 31 -9 31 -13 0 -18 -7 -18
-25z"/>
<path d="M8030 4616 c0 -2 7 -7 16 -10 8 -3 12 -2 9 4 -6 10 -25 14 -25 6z"/>
<path d="M8015 4553 c3 -8 5 -18 5 -21 0 -8 20 20 20 29 0 3 -7 6 -15 6 -10 0
-14 -6 -10 -14z"/>
<path d="M7989 4513 c-1 -10 0 -24 1 -32 1 -8 -4 -12 -14 -8 -10 4 -14 0 -11
-14 3 -13 -5 -24 -23 -34 -31 -16 -16 -20 22 -5 14 5 26 15 26 22 0 7 7 26 15
42 15 28 13 46 -6 46 -5 0 -10 -8 -10 -17z"/>
<path d="M2770 4481 c0 -6 5 -13 10 -16 6 -4 8 -11 5 -16 -4 -5 -2 -9 3 -9 11
0 36 -59 33 -74 -1 -5 4 -13 11 -17 9 -6 5 -9 -12 -10 l-25 -1 28 -10 c15 -5
24 -14 21 -20 -4 -6 -10 -5 -15 3 -6 9 -8 0 -8 -26 1 -22 3 -32 6 -22 2 9 8
17 13 17 13 0 8 -39 -6 -44 -16 -6 -12 -35 7 -47 11 -7 10 -9 -5 -9 -15 0 -17
-3 -9 -11 9 -9 9 -18 0 -36 -8 -19 -8 -29 2 -45 7 -12 10 -32 6 -50 -4 -17 -3
-28 1 -25 5 3 9 -25 8 -61 -1 -37 3 -73 8 -79 7 -8 6 -24 -1 -44 -13 -38 -13
-62 0 -34 6 15 8 10 4 -20 -2 -22 -4 -50 -5 -62 0 -12 -8 -24 -19 -28 -10 -3
-21 -15 -25 -27 -8 -32 2 -35 13 -4 13 33 16 33 17 -4 1 -16 -4 -28 -10 -27
-6 1 -10 -9 -8 -22 2 -20 0 -22 -13 -11 -8 7 -12 17 -8 23 3 5 -2 16 -11 23
-14 10 -15 16 -6 33 7 14 7 21 0 21 -5 0 -10 7 -10 15 0 8 -6 12 -13 9 -17 -6
-19 25 -3 45 8 11 8 13 -1 8 -17 -11 -43 3 -36 19 3 8 0 14 -6 14 -6 0 -8 6
-5 14 3 8 -2 29 -11 46 -9 17 -14 38 -11 46 3 8 -1 17 -9 21 -11 4 -13 9 -5
18 8 9 7 15 -2 18 -10 4 -10 8 1 15 12 9 12 13 2 26 -7 8 -10 24 -6 35 5 16 1
15 -23 -7 -20 -18 -26 -29 -18 -34 7 -5 5 -8 -6 -8 -15 0 -16 -7 -12 -42 10
-79 13 -328 4 -328 -5 0 -8 -22 -8 -48 1 -26 -1 -53 -5 -59 -4 -7 -10 -34 -13
-60 -3 -26 -6 -61 -8 -77 -2 -17 -11 -35 -20 -41 -10 -8 -12 -15 -5 -22 7 -7
1 -12 -20 -16 l-29 -6 13 -46 c8 -25 14 -46 13 -48 0 -1 2 -11 5 -22 6 -19 13
-20 154 -13 194 8 317 25 375 51 26 12 45 24 43 27 -2 3 22 4 53 3 51 -2 53
-1 19 6 -35 7 -62 21 -41 21 10 0 2 127 -10 167 -2 10 -8 47 -11 82 -4 36 -12
73 -18 83 -10 15 -9 21 3 28 13 8 13 11 1 19 -7 5 -10 14 -7 20 4 6 2 11 -3
11 -6 0 -11 8 -11 18 0 14 2 15 10 2 8 -13 10 -12 10 3 0 9 -4 17 -9 17 -5 0
-7 10 -3 22 4 16 2 19 -9 13 -8 -5 -7 0 4 12 16 18 16 22 2 33 -18 15 -20 36
-2 43 7 3 5 6 -5 6 -10 1 -18 6 -18 12 0 5 5 7 12 3 8 -5 9 -2 5 10 -4 10 -7
22 -7 27 0 5 -8 9 -17 10 -12 1 -10 4 7 9 24 8 24 8 3 9 -25 1 -33 35 -10 44
7 4 6 6 -5 6 -12 1 -17 13 -20 54 -2 28 0 53 3 55 4 2 1 15 -7 30 -8 15 -14
46 -14 69 0 23 -5 45 -10 48 -6 4 -8 11 -5 16 4 5 -1 9 -9 9 -8 0 -27 18 -43
40 -15 22 -34 40 -40 40 -7 0 -12 3 -12 8 4 21 -2 32 -13 26 -8 -5 -9 -2 -5 9
3 9 3 16 -1 15 -21 -4 -42 16 -36 34 4 13 2 18 -4 14 -5 -3 -15 1 -22 9 -7 8
-9 15 -4 15 11 0 -18 20 -28 20 -5 0 -8 -4 -8 -9z m-105 -481 c3 -5 1 -10 -4
-10 -6 0 -11 5 -11 10 0 6 2 10 4 10 3 0 8 -4 11 -10z m-126 -731 c-16 -10
-23 -4 -14 10 3 6 11 8 17 5 6 -4 5 -9 -3 -15z"/>
<path d="M8367 4403 c-10 -9 -9 -23 1 -23 5 0 9 7 9 15 0 17 -1 18 -10 8z"/>
<path d="M4885 4350 c-3 -6 1 -7 9 -4 18 7 21 14 7 14 -6 0 -13 -4 -16 -10z"/>
<path d="M3765 4334 c-22 -11 -24 -13 -7 -10 14 3 22 -1 22 -10 0 -8 5 -14 10
-14 6 0 10 11 10 25 0 14 -1 25 -2 25 -2 -1 -16 -7 -33 -16z"/>
<path d="M3810 4340 c0 -5 5 -10 11 -10 5 0 7 5 4 10 -3 6 -8 10 -11 10 -2 0
-4 -4 -4 -10z"/>
<path d="M4917 4328 c11 -15 11 -28 0 -45 -5 -8 -4 -13 2 -13 13 0 25 45 16
59 -3 6 -11 11 -17 11 -7 0 -7 -4 -1 -12z"/>
<path d="M1966 4284 c33 -228 82 -434 164 -682 33 -101 60 -195 60 -208 0 -33
35 -130 53 -149 9 -8 23 -12 31 -9 20 8 20 9 -1 40 -14 22 -14 27 -2 35 12 7
11 9 -2 9 -12 0 -19 13 -23 45 -4 24 -11 47 -17 50 -5 4 -9 16 -9 28 0 18 -2
19 -11 7 -8 -12 -9 -10 -7 10 1 14 -1 30 -4 36 -4 6 -10 26 -13 45 -3 18 -9
36 -14 39 -4 3 -16 37 -26 75 -10 39 -22 72 -26 75 -4 3 -10 23 -13 45 -2 22
-5 42 -6 45 -2 3 -2 9 -1 14 1 4 -2 13 -8 20 -5 6 -9 23 -10 39 -3 55 -5 67
-11 67 -3 0 -7 15 -7 33 -1 17 -11 59 -23 92 -12 33 -22 67 -24 75 -1 9 -5 20
-8 25 -3 6 -11 35 -19 65 -15 66 -30 89 -23 34z"/>
<path d="M3858 4223 c7 -3 16 -2 19 1 4 3 -2 6 -13 5 -11 0 -14 -3 -6 -6z"/>
<path d="M3110 3860 c-18 -12 -2 -12 25 0 13 6 15 9 5 9 -8 0 -22 -4 -30 -9z"/>
<path d="M6970 3810 c-8 -5 -12 -11 -9 -14 2 -3 11 -1 19 4 8 5 12 11 9 14 -2
3 -11 1 -19 -4z"/>
<path d="M3130 3793 c0 -13 5 -23 10 -23 13 0 13 11 0 30 -8 12 -10 11 -10 -7z"/>
<path d="M4685 3800 c-3 -5 1 -10 9 -10 9 0 16 5 16 10 0 6 -4 10 -9 10 -6 0
-13 -4 -16 -10z"/>
<path d="M3220 3790 c0 -5 4 -10 9 -10 6 0 13 5 16 10 3 6 -1 10 -9 10 -9 0
-16 -4 -16 -10z"/>
<path d="M3270 3790 c0 -5 5 -10 10 -10 6 0 10 5 10 10 0 6 -4 10 -10 10 -5 0
-10 -4 -10 -10z"/>
<path d="M3468 3793 c6 -2 18 -2 25 0 6 3 1 5 -13 5 -14 0 -19 -2 -12 -5z"/>
<path d="M3518 3793 c6 -2 18 -2 25 0 6 3 1 5 -13 5 -14 0 -19 -2 -12 -5z"/>
<path d="M4638 3793 c7 -3 16 -2 19 1 4 3 -2 6 -13 5 -11 0 -14 -3 -6 -6z"/>
<path d="M3160 3779 c0 -5 5 -7 10 -4 6 3 10 8 10 11 0 2 -4 4 -10 4 -5 0 -10
-5 -10 -11z"/>
<path d="M6950 3765 c-10 -12 -10 -15 4 -15 9 0 16 7 16 15 0 8 -2 15 -4 15
-2 0 -9 -7 -16 -15z"/>
<path d="M6930 3725 c0 -8 0 -17 0 -20 0 -3 -9 -18 -21 -35 -11 -17 -15 -30
-9 -30 6 0 8 -5 5 -10 -4 -6 -12 -7 -18 -3 -6 4 -21 7 -32 8 -78 5 -77 4 -72
25 3 11 1 18 -4 14 -5 -3 -9 0 -9 5 0 6 -5 11 -10 11 -7 0 -7 -7 1 -22 10 -18
9 -20 -5 -15 -9 4 -16 3 -16 -2 0 -8 114 -37 138 -35 6 1 12 -2 12 -6 0 -4 21
-13 48 -19 26 -7 56 -14 67 -17 14 -4 16 -3 7 4 -11 7 -8 11 9 15 13 4 21 9
17 12 -3 3 -18 0 -33 -7 -23 -10 -29 -10 -33 0 -2 6 -9 12 -17 12 -8 0 -12 13
-11 35 1 30 4 34 21 29 14 -4 16 -2 7 4 -7 5 -10 16 -6 27 6 14 4 16 -7 10
-12 -8 -12 -6 0 8 12 15 11 17 -8 17 -12 0 -21 -6 -21 -15z"/>
<path d="M6770 3710 c-13 -8 -13 -10 2 -10 9 0 20 5 23 10 8 13 -5 13 -25 0z"/>
<path d="M6990 3696 c0 -2 8 -10 18 -17 15 -13 16 -12 3 4 -13 16 -21 21 -21
13z"/>
<path d="M6960 3630 c0 -5 5 -10 11 -10 5 0 7 5 4 10 -3 6 -8 10 -11 10 -2 0
-4 -4 -4 -10z"/>
<path d="M6631 3621 c0 -7 -7 -11 -16 -8 -12 5 -12 2 -3 -19 14 -29 32 -17 25
17 -2 13 -5 18 -6 10z"/>
<path d="M6580 3580 c0 -5 5 -10 11 -10 5 0 7 5 4 10 -3 6 -8 10 -11 10 -2 0
-4 -4 -4 -10z"/>
<path d="M6374 3571 c-5 -5 -25 -11 -44 -14 -34 -4 -34 -4 7 -5 23 -1 45 3 48
9 9 14 1 21 -11 10z"/>
<path d="M6218 3553 c7 -3 16 -2 19 1 4 3 -2 6 -13 5 -11 0 -14 -3 -6 -6z"/>
<path d="M6537 3480 c-3 -11 -1 -20 4 -20 5 0 9 9 9 20 0 11 -2 20 -4 20 -2 0
-6 -9 -9 -20z"/>
<path d="M6607 3463 c-4 -3 -7 -20 -6 -37 l1 -31 9 34 c10 33 8 47 -4 34z"/>
<path d="M5400 3453 c0 -5 26 -20 57 -34 48 -22 61 -24 85 -15 28 10 27 11
-44 33 -78 24 -98 27 -98 16z"/>
<path d="M6050 3429 c0 -5 5 -7 10 -4 6 3 10 8 10 11 0 2 -4 4 -10 4 -5 0 -10
-5 -10 -11z"/>
<path d="M3288 3373 c7 -3 16 -2 19 1 4 3 -2 6 -13 5 -11 0 -14 -3 -6 -6z"/>
<path d="M2540 3360 c-9 -6 -10 -10 -3 -10 6 0 15 5 18 10 8 12 4 12 -15 0z"/>
<path d="M5646 3355 c4 -8 10 -12 15 -9 11 6 2 24 -11 24 -5 0 -7 -7 -4 -15z"/>
<path d="M5677 3312 c3 -6 18 -11 33 -10 36 3 28 23 -9 23 -19 0 -27 -4 -24
-13z"/>
<path d="M8286 3265 c-9 -26 -7 -32 5 -12 6 10 9 21 6 23 -2 3 -7 -2 -11 -11z"/>
<path d="M2490 3238 c0 -7 5 -20 10 -28 8 -12 10 -11 10 7 0 12 -4 25 -10 28
-5 3 -10 0 -10 -7z"/>
<path d="M2151 3222 c-2 -35 14 -56 75 -107 l56 -45 38 21 c24 14 36 27 33 36
-3 8 -7 12 -10 9 -2 -2 -16 7 -30 20 -15 14 -33 22 -40 20 -7 -3 -19 7 -27 22
-9 15 -15 22 -16 16 0 -6 -11 -11 -25 -11 -15 0 -22 4 -18 10 4 6 0 8 -10 4
-10 -4 -17 0 -20 11 -3 12 -5 10 -6 -6z m86 -44 c-3 -8 -6 -5 -6 6 -1 11 2 17
5 13 3 -3 4 -12 1 -19z"/>
<path d="M8317 3221 c-7 -30 -1 -41 21 -40 14 0 13 2 -3 9 l-20 9 20 0 c12 1
16 4 9 9 -6 4 -13 14 -16 22 -3 10 -7 7 -11 -9z"/>
<path d="M2122 3220 c2 -9 -4 -15 -17 -15 -11 0 -26 -4 -33 -8 -8 -6 -20 -2
-33 9 -11 10 -19 12 -19 6 0 -7 6 -12 13 -13 6 -1 1 -4 -13 -8 -15 -4 -28 -3
-32 3 -5 8 -8 8 -8 0 0 -6 -11 -10 -25 -9 -15 2 -29 -4 -36 -13 -10 -16 -10
-15 -5 1 3 9 2 17 -2 18 -4 0 -15 2 -25 4 -9 2 -22 -5 -27 -16 -11 -20 -30
-26 -30 -8 0 5 5 7 10 4 6 -3 10 -1 10 4 0 14 -37 14 -42 1 -2 -7 -14 -7 -36
-1 -30 9 -47 -1 -19 -12 7 -3 5 -6 -5 -6 -10 -1 -18 4 -18 10 0 6 -7 4 -15 -5
-9 -8 -22 -13 -30 -9 -9 3 -23 -1 -32 -8 -15 -12 -16 -12 -10 3 5 15 3 16 -18
6 -14 -6 -25 -15 -25 -19 0 -5 -7 -6 -15 -3 -8 4 -15 1 -15 -6 0 -7 -7 -10
-15 -6 -8 3 -15 1 -15 -4 0 -6 -3 -9 -8 -8 -4 2 -18 -7 -31 -19 l-23 -21 22
-12 c47 -25 265 14 469 84 74 25 143 46 152 46 17 0 20 22 5 37 -4 4 -6 1 -4
-7z m-232 -41 c0 8 2 12 5 9 3 -3 2 -13 -1 -22 -5 -14 -9 -15 -15 -4 -5 7 -9
18 -9 23 0 6 5 3 10 -5 8 -12 10 -12 10 -1z"/>
<path d="M5920 3220 c8 -5 20 -10 25 -10 6 0 3 5 -5 10 -8 5 -19 10 -25 10 -5
0 -3 -5 5 -10z"/>
<path d="M2266 3212 c-3 -6 -1 -14 5 -17 14 -9 20 -2 10 14 -6 8 -11 9 -15 3z"/>
<path d="M6140 3209 c0 -5 5 -7 10 -4 6 3 10 8 10 11 0 2 -4 4 -10 4 -5 0 -10
-5 -10 -11z"/>
<path d="M2496 3183 c6 -4 14 -15 17 -23 5 -11 6 -9 4 4 -1 11 -9 21 -17 23
-10 3 -11 2 -4 -4z"/>
<path d="M6060 3180 c-24 -8 -23 -8 8 -9 20 -1 31 3 27 9 -3 6 -7 10 -8 9 -1
-1 -13 -5 -27 -9z"/>
<path d="M6396 3177 c3 -10 9 -15 12 -12 3 3 0 11 -7 18 -10 9 -11 8 -5 -6z"/>
<path d="M2455 3170 c3 -5 8 -10 11 -10 2 0 4 5 4 10 0 6 -5 10 -11 10 -5 0
-7 -4 -4 -10z"/>
<path d="M6620 3090 c0 -5 5 -10 10 -10 6 0 10 5 10 10 0 6 -4 10 -10 10 -5 0
-10 -4 -10 -10z"/>
<path d="M6985 3080 c-3 -5 -1 -10 4 -10 6 0 11 5 11 10 0 6 -2 10 -4 10 -3 0
-8 -4 -11 -10z"/>
<path d="M1685 3023 c-39 -13 -85 -14 -95 -2 -3 4 -16 2 -30 -4 -14 -6 -34
-11 -46 -12 -11 0 -33 -8 -47 -18 -14 -9 -31 -17 -37 -17 -5 0 -10 -7 -10 -15
0 -8 -4 -15 -8 -15 -13 0 -72 -52 -72 -64 0 -6 -9 -17 -20 -24 -11 -7 -20 -19
-20 -27 0 -8 -4 -15 -10 -15 -5 0 -10 -5 -10 -12 0 -25 -36 -88 -50 -88 -13 0
-13 -1 0 -10 10 -7 11 -13 4 -17 -5 -5 -10 -17 -11 -28 0 -11 -3 -28 -8 -37
-5 -13 -3 -18 8 -18 8 0 18 -6 20 -12 4 -10 6 -10 6 0 1 6 9 12 19 12 13 0 14
2 4 9 -10 6 -6 10 14 15 16 4 36 14 44 22 60 56 72 69 81 88 28 66 61 93 188
158 132 68 212 146 149 145 -13 0 -41 -6 -63 -14z"/>
<path d="M8775 2981 c-3 -5 -1 -12 5 -16 5 -3 10 1 10 9 0 18 -6 21 -15 7z"/>
<path d="M8835 2970 c3 -5 8 -10 11 -10 2 0 4 5 4 10 0 6 -5 10 -11 10 -5 0
-7 -4 -4 -10z"/>
<path d="M6931 2944 c0 -11 3 -14 6 -6 3 7 2 16 -1 19 -3 4 -6 -2 -5 -13z"/>
<path d="M9002 2938 c-7 -7 -12 -17 -12 -24 0 -14 -32 -13 -42 1 -14 19 -21
-5 -9 -31 11 -24 24 -26 27 -3 1 5 2 12 3 16 0 4 7 0 14 -9 6 -9 23 -19 36
-23 23 -7 24 -6 18 30 -7 46 -19 59 -35 43z m12 -42 c-6 -16 -24 -23 -24 -8 0
10 22 33 27 28 2 -2 1 -11 -3 -20z"/>
<path d="M7040 2929 c0 -5 5 -7 10 -4 6 3 10 -2 10 -12 0 -15 2 -15 9 -3 6 8
7 18 5 22 -8 12 -34 10 -34 -3z"/>
<path d="M8870 2900 c-9 -6 -10 -10 -3 -10 6 0 15 5 18 10 8 12 4 12 -15 0z"/>
<path d="M6955 2880 c-3 -5 -1 -10 4 -10 6 0 11 5 11 10 0 6 -2 10 -4 10 -3 0
-8 -4 -11 -10z"/>
<path d="M2996 2765 c-9 -26 -7 -32 5 -12 6 10 9 21 6 23 -2 3 -7 -2 -11 -11z"/>
<path d="M4326 2744 c-20 -43 -44 -64 -143 -122 -45 -26 -71 -47 -67 -54 4 -6
3 -8 -4 -4 -11 7 -208 -123 -362 -239 -204 -154 -299 -210 -340 -202 -15 3
-31 2 -36 -2 -35 -32 -243 -133 -260 -127 -8 3 -14 0 -14 -7 0 -8 -4 -6 -10 3
-7 11 -10 11 -10 2 0 -7 -5 -10 -10 -7 -6 4 -27 9 -48 11 -29 3 -34 2 -22 -7
12 -9 11 -9 -5 -4 -11 4 -38 11 -61 15 -22 3 -56 17 -74 30 -30 22 -32 26 -28
74 4 46 17 79 71 181 9 16 13 32 8 35 -23 15 -22 56 7 148 34 113 72 266 62
255 -4 -5 -20 -43 -35 -85 -15 -43 -31 -75 -36 -72 -5 3 -6 -2 -3 -10 3 -9 1
-16 -4 -16 -6 0 -14 -9 -17 -20 -3 -11 -13 -20 -20 -20 -8 0 -12 -8 -10 -20 2
-13 -2 -20 -11 -20 -8 0 -15 -4 -15 -10 -1 -5 -2 -15 -3 -20 0 -6 -14 -19 -30
-29 -25 -17 -26 -20 -10 -24 17 -4 17 -6 -3 -12 -13 -4 -21 -11 -18 -15 3 -5
-3 -16 -12 -26 -10 -10 -18 -20 -18 -23 0 -3 -5 -6 -12 -6 -21 0 -37 -22 -22
-30 8 -6 10 -4 4 5 -5 9 -4 11 4 6 18 -11 6 -21 -30 -24 -27 -2 -30 0 -20 12
8 10 9 16 1 21 -6 4 -9 1 -8 -7 2 -8 -4 -12 -14 -10 -11 2 -18 -3 -18 -13 0
-10 5 -13 13 -9 6 4 5 -1 -4 -11 -23 -23 -77 -25 -114 -3 -36 21 -84 23 -110
5 -16 -13 -17 -17 -4 -45 8 -18 20 -32 27 -32 8 0 16 -9 19 -20 3 -11 9 -21
14 -21 5 -1 14 -3 19 -4 6 -1 18 -3 28 -4 15 -1 15 -3 2 -14 -20 -16 -14 -44
11 -50 16 -4 18 -9 9 -31 -6 -17 -6 -26 0 -26 6 0 10 5 10 10 0 6 5 10 11 10
5 0 8 -4 5 -8 -8 -13 14 -83 24 -77 4 3 6 -4 3 -15 -3 -11 0 -20 6 -20 6 0 11
-7 11 -16 0 -14 3 -14 15 -4 18 15 19 7 4 -22 -10 -18 -9 -20 5 -15 17 7 22
-8 6 -18 -6 -4 -8 -11 -4 -16 3 -5 9 -7 14 -4 16 10 37 -6 35 -28 -1 -12 3
-25 9 -29 8 -6 6 -11 -4 -17 -8 -6 -11 -13 -8 -17 12 -11 -38 -44 -66 -44 -14
0 -26 -5 -26 -11 0 -7 11 -8 30 -4 19 4 30 3 30 -4 0 -6 -8 -11 -17 -12 -13 0
-11 -3 7 -10 18 -8 21 -12 11 -18 -17 -11 -5 -49 17 -53 16 -3 16 -4 -1 -11
-13 -5 -20 0 -27 19 -6 15 -14 22 -22 18 -8 -5 -9 -1 -5 12 7 18 7 18 -8 0 -8
-11 -15 -24 -15 -29 0 -4 -5 -5 -10 -2 -6 4 -5 -5 2 -20 10 -23 34 -32 26 -10
-2 6 -6 9 -10 7 -10 -3 -10 10 0 23 13 18 35 17 28 -1 -3 -9 -1 -23 5 -31 10
-11 8 -15 -9 -20 -12 -3 -22 -9 -22 -14 0 -18 129 -137 171 -157 24 -12 80
-29 124 -38 78 -16 144 -13 266 12 24 5 26 3 32 -38 4 -23 18 -113 32 -198 21
-131 35 -287 58 -620 2 -30 -2 -108 -10 -174 -7 -65 -11 -127 -8 -137 4 -13 1
-19 -9 -19 -20 0 -22 -6 -31 -67 -5 -36 -3 -53 4 -53 6 0 12 12 12 28 l1 27 8
-30 c7 -26 8 -23 10 25 l3 55 7 -55 c4 -30 8 -48 9 -40 1 13 2 13 11 0 5 -8
11 -12 14 -10 4 5 23 163 28 238 2 22 8 34 23 38 11 4 23 12 27 18 5 7 8 5 8
-6 0 -9 -4 -20 -10 -23 -5 -3 -10 -13 -10 -22 0 -13 3 -13 15 -3 10 9 15 9 15
1 0 -6 -4 -11 -10 -11 -16 0 -12 -36 5 -50 13 -11 15 -10 9 6 -5 16 -4 16 5 4
8 -11 7 -18 -4 -26 -19 -15 -19 -28 0 -20 18 6 20 -5 3 -22 -9 -9 -9 -18 0
-37 7 -15 8 -25 2 -25 -6 0 -10 -5 -10 -11 0 -5 5 -7 10 -4 6 4 10 -5 10 -19
0 -14 5 -26 10 -26 6 0 10 5 10 10 0 6 7 10 16 10 8 0 13 -4 10 -8 -2 -4 10
-8 28 -8 20 0 33 5 33 13 0 8 -8 11 -21 7 -12 -3 -33 0 -46 6 -23 10 -23 10
10 7 45 -5 74 19 34 29 -19 5 -22 9 -12 15 10 7 10 9 -2 9 -8 0 -22 -5 -30
-10 -12 -7 -8 -11 18 -16 18 -4 31 -9 28 -11 -2 -3 -18 -2 -35 2 -21 4 -29 12
-28 25 1 10 5 16 9 14 4 -3 16 0 27 5 14 8 22 6 36 -9 10 -11 25 -19 34 -19
14 1 14 2 -1 6 -17 4 -33 47 -23 63 9 15 -2 12 -18 -4 -7 -8 -25 -16 -38 -18
-19 -2 -25 2 -27 22 -3 24 0 25 45 24 49 -2 93 -7 154 -18 33 -6 33 -6 -6 9
-52 20 -92 28 -135 27 -31 0 -32 1 -10 8 14 4 39 5 55 3 28 -3 28 -3 7 7 -13
5 -35 7 -49 4 -17 -5 -24 -3 -19 4 4 6 -2 8 -16 4 -14 -3 -19 -1 -14 6 3 6 1
12 -6 15 -15 5 25 0 62 -8 14 -3 19 -3 13 1 -7 3 -13 10 -13 15 0 6 5 7 10 4
6 -4 23 -8 38 -10 15 -2 48 -8 74 -13 40 -8 82 -1 68 11 -10 7 -133 26 -141
21 -5 -3 -9 0 -9 6 0 6 -3 9 -7 7 -5 -2 -24 1 -43 9 -47 17 -23 17 58 0 91
-20 160 -27 141 -15 -7 5 -28 9 -46 9 -17 0 -35 5 -38 10 -4 6 -11 8 -16 5 -5
-4 -9 -1 -9 4 0 14 17 14 25 1 3 -6 12 -10 18 -10 7 0 4 6 -5 14 -10 7 -15 15
-13 18 3 3 -10 4 -30 3 -22 -2 -32 1 -28 8 4 7 0 8 -12 3 -16 -6 -16 -4 -4 10
11 13 11 18 2 21 -21 7 -14 22 7 16 11 -3 20 -12 20 -19 0 -8 5 -14 10 -14 19
0 10 25 -15 44 -14 10 -25 24 -25 30 0 6 4 5 9 -3 8 -12 12 -12 25 2 20 20 21
38 1 31 -19 -8 -10 25 12 43 8 6 12 16 9 22 -4 6 8 14 26 20 29 8 30 9 8 10
-14 1 -33 8 -42 15 -16 12 -16 14 8 35 19 17 29 20 39 11 9 -7 15 -7 19 -1 8
12 -30 34 -44 26 -6 -3 -10 -2 -10 4 0 6 11 13 23 17 19 4 23 11 19 29 -2 13
-10 25 -17 27 -11 2 -11 7 1 22 14 19 14 19 14 -2 0 -24 15 -30 22 -9 6 16 1
146 -7 177 -4 21 -4 22 4 5 8 -17 9 -15 13 15 l5 35 1 -32 c3 -44 22 -42 22 2
0 21 5 35 13 35 8 0 7 3 -3 10 -13 8 -13 9 0 14 54 16 56 18 30 26 l-25 7 27
13 c30 14 28 30 -4 30 -33 0 -14 11 20 12 28 1 31 4 37 44 6 41 25 62 25 28 0
-8 5 -12 10 -9 6 4 8 15 5 26 -5 15 -1 19 19 19 38 0 32 20 -6 21 -28 0 -30 2
-13 9 12 5 14 9 6 9 -8 1 -11 4 -8 7 4 4 13 1 21 -5 23 -19 35 -4 29 34 -4 23
-2 35 6 35 6 0 11 -17 11 -40 0 -22 5 -40 11 -40 5 0 7 5 3 12 -4 6 1 17 11
24 10 7 15 19 12 27 -3 7 1 14 8 14 7 0 11 -7 8 -16 -2 -9 1 -23 7 -31 9 -13
11 -13 20 0 6 8 8 25 5 38 -6 26 -5 26 29 9 14 -8 23 -17 19 -20 -3 -4 -12 -2
-20 4 -10 9 -13 8 -13 -5 0 -10 9 -16 25 -16 21 0 25 5 25 28 -3 120 1 172 15
172 7 0 16 -12 18 -27 3 -22 4 -21 3 5 -1 17 2 32 6 32 4 0 8 7 8 16 0 9 8 14
18 13 29 -2 58 2 45 8 -7 2 -13 9 -13 14 0 6 5 7 11 3 9 -5 10 1 5 21 -6 25
-5 27 8 16 9 -8 16 -24 16 -37 0 -13 4 -24 9 -24 10 0 21 48 21 90 0 19 6 29
20 33 11 3 18 1 14 -4 -3 -5 -1 -9 5 -9 5 0 12 -10 14 -22 3 -17 5 -14 6 10 1
25 5 32 21 32 14 0 20 7 20 21 0 12 4 17 11 14 6 -4 13 2 16 14 3 12 13 21 24
21 11 0 23 8 26 18 6 14 8 13 14 -8 6 -23 7 -23 8 8 1 22 6 32 17 32 11 0 15
6 11 20 -7 29 2 24 15 -7 11 -27 12 -27 15 -5 4 22 17 27 63 23 l25 -2 -22 21
c-24 21 -30 40 -14 40 5 0 14 -7 21 -15 19 -23 60 -19 60 5 0 21 24 28 35 10
11 -18 33 -10 39 15 4 14 14 25 22 25 10 0 14 -6 10 -15 -4 -11 1 -15 17 -15
17 0 19 2 8 9 -11 7 -12 13 -3 24 16 18 52 15 67 -7 13 -17 13 -16 17 1 3 15
5 15 10 -4 4 -16 2 -23 -8 -23 -8 0 -14 -5 -14 -10 0 -7 6 -7 19 0 11 5 32 10
46 10 21 0 25 -4 20 -19 -4 -14 0 -21 15 -26 24 -8 27 -23 4 -21 -9 0 -19 -6
-21 -14 -3 -11 -2 -12 4 -2 8 10 13 9 25 -5 21 -24 32 -63 19 -63 -6 0 -11 -5
-11 -12 0 -9 3 -9 12 0 18 18 27 14 21 -8 -3 -12 -2 -20 3 -19 17 4 44 -13 44
-28 0 -10 6 -12 22 -8 16 6 20 4 15 -9 -3 -8 -2 -18 3 -21 4 -3 11 1 13 7 4
10 6 10 6 1 1 -7 5 -13 10 -13 6 0 9 9 8 20 -1 11 -7 20 -14 20 -15 0 -17 26
-3 35 15 10 12 25 -6 25 -10 0 -13 6 -9 19 4 12 0 21 -11 25 -13 5 -15 9 -6
18 17 17 15 28 -6 28 -14 0 -18 7 -16 30 1 19 -3 30 -11 30 -8 0 -12 12 -11
33 1 25 -3 32 -16 31 -22 -2 -24 22 -3 30 21 8 19 26 -4 26 -14 0 -18 5 -14
20 3 12 0 20 -7 20 -7 0 -10 7 -6 16 4 9 1 23 -5 30 -6 7 -8 17 -5 23 3 5 -1
12 -10 15 -13 5 -14 9 -5 20 9 10 8 15 -4 20 -9 3 -15 11 -14 18 2 21 -12 58
-23 58 -5 0 -6 5 -3 10 3 6 1 10 -6 10 -7 0 -9 10 -7 24 4 22 -2 27 -59 51
-63 27 -77 47 -49 69 8 7 26 80 44 184 l29 173 -78 -7 c-65 -5 -98 -2 -201 21
-68 15 -137 36 -154 46 -17 11 -33 19 -36 19 -2 0 -12 -16 -22 -36z m-1722
-549 c-4 -8 -10 -15 -15 -15 -4 0 -6 7 -3 15 4 8 10 15 15 15 4 0 6 -7 3 -15z
m2171 -277 c6 -4 0 -8 -12 -8 -16 0 -21 4 -16 15 3 9 8 12 12 8 3 -4 11 -11
16 -15z m-1695 -9 c-13 -8 -13 -10 0 -20 11 -7 12 -12 3 -15 -7 -3 -9 -12 -6
-20 3 -9 -1 -14 -12 -14 -9 0 -14 -3 -12 -7 3 -5 -1 -14 -9 -21 -11 -10 -14
-10 -14 0 -1 8 -7 5 -16 -7 -16 -22 -41 -26 -63 -10 -11 7 -13 7 -7 -2 4 -8
-5 -24 -24 -43 -24 -23 -30 -26 -30 -12 -1 13 -4 11 -15 -8 -9 -16 -15 -20
-15 -10 -1 10 -3 11 -7 3 -2 -7 -9 -13 -15 -13 -6 0 -8 7 -4 15 3 8 1 15 -4
15 -6 0 -10 -5 -10 -11 0 -6 -6 -9 -12 -6 -7 2 -21 0 -31 -5 -23 -12 -52 9
-37 27 5 6 7 15 3 18 -3 4 1 7 9 7 9 0 18 9 21 20 3 11 17 24 31 30 14 5 26
17 26 26 0 11 6 15 20 11 10 -3 21 0 22 5 5 15 78 38 123 38 22 0 51 7 65 15
27 14 44 10 20 -6z m1765 -59 c3 -5 1 -10 -4 -10 -6 0 -11 5 -11 10 0 6 2 10
4 10 3 0 8 -4 11 -10z m-2025 -10 c0 -5 -8 -10 -17 -10 -15 0 -16 2 -3 10 19
12 20 12 20 0z m1840 -5 c0 -8 -4 -15 -10 -15 -5 0 -10 7 -10 15 0 8 5 15 10
15 6 0 10 -7 10 -15z m-2003 -17 c-3 -8 -6 -5 -6 6 -1 11 2 17 5 13 3 -3 4
-12 1 -19z m1911 -3 c-3 -3 -9 2 -12 12 -6 14 -5 15 5 6 7 -7 10 -15 7 -18z
m-1895 -169 c-10 -14 -22 -26 -26 -26 -5 0 1 14 13 31 12 16 24 28 27 25 3 -2
-3 -16 -14 -30z m44 -2 c-3 -3 -12 -4 -19 -1 -8 3 -5 6 6 6 11 1 17 -2 13 -5z
m1573 -4 c0 -5 -4 -10 -10 -10 -5 0 -10 5 -10 10 0 6 5 10 10 10 6 0 10 -4 10
-10z m-173 -102 c-2 -13 -4 -3 -4 22 0 25 2 35 4 23 2 -13 2 -33 0 -45z
m-1440 36 c-3 -3 -12 -4 -19 -1 -8 3 -5 6 6 6 11 1 17 -2 13 -5z m-17 -69 c0
-8 -2 -15 -4 -15 -2 0 -6 7 -10 15 -3 8 -1 15 4 15 6 0 10 -7 10 -15z m1415
-36 c-8 -12 -35 -12 -35 0 0 11 22 20 33 14 4 -2 5 -9 2 -14z m-85 -129 c0 -5
-2 -10 -4 -10 -3 0 -8 5 -11 10 -3 6 -1 10 4 10 6 0 11 -4 11 -10z m30 -52 c0
-6 -6 -5 -15 2 -8 7 -15 14 -15 16 0 2 7 1 15 -2 8 -4 15 -11 15 -16z m-170 2
c0 -5 -5 -10 -11 -10 -5 0 -7 5 -4 10 3 6 8 10 11 10 2 0 4 -4 4 -10z m120
-40 c0 -5 -4 -10 -10 -10 -5 0 -10 5 -10 10 0 6 5 10 10 10 6 0 10 -4 10 -10z
m-257 -217 c-7 -2 -19 -2 -25 0 -7 3 -2 5 12 5 14 0 19 -2 13 -5z m-36 -45
c-3 -8 -6 -5 -6 6 -1 11 2 17 5 13 3 -3 4 -12 1 -19z m-107 -472 c0 -11 -19
-15 -25 -6 -3 5 1 10 9 10 9 0 16 -2 16 -4z m-33 -222 c-3 -3 -12 -4 -19 -1
-8 3 -5 6 6 6 11 1 17 -2 13 -5z m-240 -176 c-3 -7 -5 -2 -5 12 0 14 2 19 5
13 2 -7 2 -19 0 -25z m-13 -73 c-4 -8 -8 -15 -10 -15 -2 0 -4 7 -4 15 0 8 4
15 10 15 5 0 7 -7 4 -15z"/>
<path d="M1468 2578 c-43 -55 -78 -106 -78 -114 0 -8 -4 -14 -9 -14 -5 0 -13
-10 -17 -22 -4 -13 -9 -25 -13 -28 -14 -11 -41 -72 -35 -81 3 -5 1 -9 -4 -9
-4 0 -16 -37 -26 -82 -10 -46 -20 -91 -23 -100 -3 -12 1 -18 11 -18 10 0 16 9
16 23 0 18 2 19 10 7 9 -14 12 -8 9 16 0 3 8 13 18 22 10 9 27 37 38 61 11 24
24 49 30 55 5 6 25 56 44 111 18 55 51 138 72 184 22 46 38 85 37 87 -2 1 -38
-43 -80 -98z"/>
<path d="M6760 2569 c0 -5 5 -7 10 -4 6 3 10 8 10 11 0 2 -4 4 -10 4 -5 0 -10
-5 -10 -11z"/>
<path d="M7055 2258 c-9 -34 -19 -69 -22 -77 -4 -14 -4 -14 6 -1 9 13 11 13
11 -2 0 -10 -5 -18 -11 -18 -5 0 -7 -4 -4 -10 3 -5 -1 -10 -10 -10 -9 0 -14
-4 -11 -9 3 -5 -9 -16 -27 -25 -21 -10 -26 -16 -13 -16 10 0 31 11 47 25 32
26 87 45 133 45 27 0 28 1 14 18 -8 9 -30 45 -49 80 -18 34 -36 62 -40 62 -3
0 -14 -28 -24 -62z"/>
<path d="M2520 2303 c0 -5 5 -15 10 -23 8 -12 10 -11 10 8 0 12 -4 22 -10 22
-5 0 -10 -3 -10 -7z"/>
<path d="M8800 2300 c0 -5 7 -10 15 -10 8 0 15 5 15 10 0 6 -7 10 -15 10 -8 0
-15 -4 -15 -10z"/>
<path d="M8735 2290 c-16 -4 -47 -11 -67 -14 -21 -4 -38 -11 -38 -17 0 -6 6
-6 18 -1 9 6 40 13 67 17 49 6 101 26 65 24 -8 0 -28 -4 -45 -9z"/>
<path d="M2583 2256 c3 -8 1 -17 -6 -19 -7 -2 2 -4 18 -4 17 0 24 2 18 4 -7 3
-13 11 -13 19 0 8 -5 14 -11 14 -6 0 -9 -6 -6 -14z"/>
<path d="M7438 2238 c5 -5 16 -8 23 -6 8 3 3 7 -10 11 -17 4 -21 3 -13 -5z"/>
<path d="M6717 2154 c7 -3 9 -13 6 -22 -5 -13 -3 -14 7 -5 14 13 5 33 -13 32
-9 0 -9 -2 0 -5z"/>
<path d="M6656 1983 c-6 -14 -5 -15 5 -6 7 7 10 15 7 18 -3 3 -9 -2 -12 -12z"/>
<path d="M8975 1970 c28 -12 37 -12 30 0 -3 6 -16 10 -28 9 -21 0 -21 -1 -2
-9z"/>
<path d="M8796 1953 c-6 -14 -5 -15 5 -6 7 7 10 15 7 18 -3 3 -9 -2 -12 -12z"/>
<path d="M8807 1908 c-4 -13 46 -103 63 -113 4 -3 10 4 13 14 3 14 1 18 -9 14
-9 -3 -14 1 -14 12 0 9 -7 23 -15 31 -8 9 -15 24 -15 35 0 21 -16 26 -23 7z"/>
<path d="M9045 1910 c3 -5 8 -10 11 -10 2 0 4 5 4 10 0 6 -5 10 -11 10 -5 0
-7 -4 -4 -10z"/>
<path d="M9238 1905 c13 -9 26 -14 29 -11 8 8 3 12 -27 21 l-25 7 23 -17z"/>
<path d="M9065 1897 c-4 -10 -5 -21 -1 -24 10 -10 18 4 13 24 -4 17 -4 17 -12
0z"/>
<path d="M9023 1893 c-20 -7 -15 -22 7 -20 20 1 27 12 13 20 -5 2 -14 2 -20 0z"/>
<path d="M4765 1834 c9 -9 19 -13 23 -10 3 4 0 11 -8 16 -24 15 -33 11 -15 -6z"/>
<path d="M4681 1824 c0 -11 3 -14 6 -6 3 7 2 16 -1 19 -3 4 -6 -2 -5 -13z"/>
<path d="M7210 1814 l-75 -13 67 5 c37 2 78 9 90 14 30 11 10 10 -82 -6z"/>
<path d="M1250 1790 c0 -5 5 -10 10 -10 6 0 10 5 10 10 0 6 -4 10 -10 10 -5 0
-10 -4 -10 -10z"/>
<path d="M2066 1767 c-17 -12 -17 -14 1 -27 14 -11 16 -11 6 0 -10 11 -9 16 5
26 22 17 11 18 -12 1z"/>
<path d="M2642 1764 c-7 -8 -8 -14 -3 -14 10 0 25 19 20 25 -2 1 -10 -3 -17
-11z"/>
<path d="M9241 1775 c1 -19 18 -51 18 -35 0 8 -4 22 -9 30 -5 8 -9 11 -9 5z"/>
<path d="M2601 1744 c0 -11 3 -14 6 -6 3 7 2 16 -1 19 -3 4 -6 -2 -5 -13z"/>
<path d="M1275 1731 c-3 -5 0 -13 6 -17 8 -4 9 -3 5 5 -6 8 0 10 21 6 23 -4
24 -4 8 4 -26 13 -33 13 -40 2z"/>
<path d="M1985 1720 c-10 -17 12 -37 25 -24 8 8 6 15 -4 23 -10 9 -16 9 -21 1z
m20 -10 c3 -5 1 -10 -4 -10 -6 0 -11 5 -11 10 0 6 2 10 4 10 3 0 8 -4 11 -10z"/>
<path d="M2100 1719 c0 -5 5 -7 10 -4 6 3 10 8 10 11 0 2 -4 4 -10 4 -5 0 -10
-5 -10 -11z"/>
<path d="M1959 1693 c-1 -5 0 -17 1 -27 1 -13 -3 -17 -14 -13 -9 4 -16 2 -16
-3 0 -6 -7 -10 -15 -10 -8 0 -15 -8 -16 -17 0 -16 -1 -15 -8 2 -7 19 -8 19
-18 0 -8 -14 -23 -19 -61 -19 -27 -1 -48 -4 -46 -7 2 -3 -7 -5 -19 -4 -12 1
-36 3 -54 4 -20 1 -31 6 -29 14 1 6 1 9 -1 5 -3 -4 -19 -17 -38 -28 -28 -17
-40 -19 -75 -11 -23 5 -45 12 -48 16 -4 4 6 3 22 -1 17 -4 27 -3 23 2 -7 12
-71 17 -97 9 -12 -4 -17 -12 -14 -23 5 -15 4 -15 -9 1 -8 9 -20 17 -26 17 -7
0 -10 4 -6 9 3 6 15 8 27 6 22 -5 22 -5 2 15 -37 38 -88 29 -63 -11 8 -13 10
-12 13 11 0 6 4 10 9 10 4 0 13 0 19 0 14 0 -31 -34 -48 -36 -6 -1 -11 5 -10
14 0 9 -5 17 -13 17 -8 0 -16 6 -19 14 -3 8 0 11 7 7 6 -4 11 -3 11 3 0 18
-18 21 -24 4 -8 -21 46 -110 102 -169 39 -41 81 -66 106 -63 5 0 12 -5 17 -13
6 -9 32 -13 86 -13 69 0 100 7 268 63 104 35 196 68 205 73 11 7 9 8 -9 3 -15
-4 -21 -2 -17 4 3 6 24 13 46 17 22 4 38 11 34 16 -3 5 2 9 11 9 9 0 13 -4 10
-10 -4 -7 3 -7 20 0 15 6 44 10 66 10 21 0 39 4 39 9 0 11 56 -1 90 -19 31
-16 26 -11 -32 33 -68 52 -108 71 -121 58 -14 -14 -54 -14 -62 -1 -4 6 -13 5
-25 -2 -10 -7 -16 -16 -13 -21 3 -5 9 -4 13 3 8 14 30 5 30 -11 0 -6 -4 -8 -9
-5 -5 4 -11 2 -13 -4 -1 -5 -18 -14 -35 -19 -38 -11 -56 5 -30 24 28 20 19 27
-13 10 -29 -15 -40 -35 -20 -35 18 0 10 -18 -10 -23 -12 -3 -18 -1 -14 5 4 6
3 9 -2 6 -57 -28 -89 -38 -102 -35 -10 2 5 10 31 18 35 10 57 25 82 55 l34 41
-29 1 c-16 0 -32 -4 -36 -9 -3 -5 -10 -6 -16 -3 -7 4 -8 2 -4 -4 4 -7 2 -12
-3 -12 -10 0 -16 21 -12 43 0 4 -1 7 -4 7 -3 0 -6 -3 -6 -7z m45 -56 c3 3 6 2
6 -4 0 -6 -10 -10 -23 -9 -13 0 -24 6 -24 13 0 8 6 9 17 3 10 -5 20 -6 24 -3z
m271 -27 c-3 -5 -12 -10 -18 -10 -7 0 -6 4 3 10 19 12 23 12 15 0z m-350 -10
c3 -5 1 -10 -4 -10 -6 0 -11 5 -11 10 0 6 2 10 4 10 3 0 8 -4 11 -10z m-258
-36 c-9 -9 -28 6 -21 18 4 6 10 6 17 -1 6 -6 8 -13 4 -17z m-167 7 c0 -5 -7
-11 -14 -14 -10 -4 -13 -1 -9 9 6 15 23 19 23 5z m230 5 c0 -2 -7 -9 -15 -16
-13 -11 -14 -10 -9 4 5 14 24 23 24 12z m-125 -26 c-3 -5 -14 -10 -23 -9 -14
0 -13 2 3 9 27 11 27 11 20 0z m230 0 c-3 -5 -16 -10 -28 -9 -21 0 -21 1 -2 9
28 12 37 12 30 0z m-391 -19 c3 -5 -2 -15 -12 -22 -15 -12 -16 -12 -5 2 7 9
10 19 6 22 -3 4 -4 7 0 7 3 0 8 -4 11 -9z m526 5 c0 -3 -4 -8 -10 -11 -5 -3
-10 -1 -10 4 0 6 5 11 10 11 6 0 10 -2 10 -4z m-125 -46 c3 -6 -1 -7 -9 -4
-18 7 -21 14 -7 14 6 0 13 -4 16 -10z"/>
<path d="M2118 1693 c6 -2 18 -2 25 0 6 3 1 5 -13 5 -14 0 -19 -2 -12 -5z"/>
<path d="M2635 1690 c-3 -5 -1 -10 4 -10 6 0 11 5 11 10 0 6 -2 10 -4 10 -3 0
-8 -4 -11 -10z"/>
<path d="M1756 1645 c-9 -26 -7 -32 5 -12 6 10 9 21 6 23 -2 3 -7 -2 -11 -11z"/>
<path d="M1850 1645 c-19 -23 -8 -25 14 -4 11 11 15 19 9 19 -6 0 -16 -7 -23
-15z"/>
<path d="M2498 1653 c7 -3 16 -2 19 1 4 3 -2 6 -13 5 -11 0 -14 -3 -6 -6z"/>
<path d="M1710 1621 c0 -5 7 -11 14 -14 10 -4 13 -1 9 9 -6 15 -23 19 -23 5z"/>
<path d="M1800 1620 c19 -13 30 -13 30 0 0 6 -10 10 -22 10 -19 0 -20 -2 -8
-10z"/>
<path d="M2400 1617 c27 -15 36 -14 25 2 -3 6 -16 11 -28 11 -21 0 -21 -1 3
-13z"/>
<path d="M2568 1623 c7 -3 16 -2 19 1 4 3 -2 6 -13 5 -11 0 -14 -3 -6 -6z"/>
<path d="M1568 1613 c6 -2 18 -2 25 0 6 3 1 5 -13 5 -14 0 -19 -2 -12 -5z"/>
<path d="M2553 1595 c0 -8 4 -12 9 -9 5 3 6 10 3 15 -9 13 -12 11 -12 -6z"/>
<path d="M4282 1570 c0 -19 2 -27 5 -17 2 9 2 25 0 35 -3 9 -5 1 -5 -18z"/>
<path d="M1578 1583 c7 -3 16 -2 19 1 4 3 -2 6 -13 5 -11 0 -14 -3 -6 -6z"/>
<path d="M4232 1555 c0 -16 2 -22 5 -12 2 9 2 23 0 30 -3 6 -5 -1 -5 -18z"/>
<path d="M5075 1550 c-3 -5 -1 -10 4 -10 6 0 11 5 11 10 0 6 -2 10 -4 10 -3 0
-8 -4 -11 -10z"/>
<path d="M2460 1546 c0 -2 7 -7 16 -10 8 -3 12 -2 9 4 -6 10 -25 14 -25 6z"/>
<path d="M6630 1529 c0 -5 5 -7 10 -4 6 3 10 8 10 11 0 2 -4 4 -10 4 -5 0 -10
-5 -10 -11z"/>
<path d="M4133 1462 c-24 -4 -32 -22 -10 -22 15 0 43 18 37 22 -3 2 -15 2 -27
0z"/>
<path d="M4122 1410 c0 -14 2 -19 5 -12 2 6 2 18 0 25 -3 6 -5 1 -5 -13z"/>
<path d="M5335 1368 c-4 -11 -1 -23 7 -31 18 -19 58 -31 58 -18 0 5 -10 11
-22 13 -14 2 -25 12 -29 28 -5 21 -7 22 -14 8z"/>
<path d="M5920 1300 c0 -5 -9 -10 -20 -10 -11 0 -20 -4 -20 -8 0 -5 15 -7 33
-5 23 3 28 2 17 -6 -8 -5 -18 -7 -22 -5 -4 3 -8 1 -8 -4 0 -5 14 -12 30 -14
24 -4 30 -1 30 14 0 11 7 18 19 18 11 0 23 5 27 12 5 8 0 9 -14 6 -12 -4 -25
-2 -28 3 -7 12 -44 11 -44 -1z"/>
<path d="M6045 1280 c3 -5 14 -10 23 -10 15 0 15 2 2 10 -20 13 -33 13 -25 0z"/>
<path d="M5346 1265 c-3 -8 -1 -15 4 -15 6 0 10 7 10 15 0 8 -2 15 -4 15 -2 0
-6 -7 -10 -15z"/>
<path d="M5693 1235 c1 -19 4 -35 8 -35 8 0 17 42 11 58 -8 25 -20 11 -19 -23z"/>
<path d="M6020 1244 c0 -11 6 -14 16 -10 9 3 22 6 30 6 27 0 14 15 -16 17 -21
2 -30 -2 -30 -13z"/>
<path d="M5764 1223 c-20 -18 -23 -24 -9 -18 11 4 29 10 40 13 18 5 18 4 6
-11 -8 -10 -9 -17 -3 -17 6 0 14 5 17 10 3 6 15 10 26 10 11 0 17 -4 14 -10
-8 -13 5 -13 25 0 13 8 12 10 -2 10 -10 0 -18 5 -18 10 0 6 -6 10 -12 8 -7 -1
-22 3 -34 9 -17 10 -25 8 -50 -14z"/>
<path d="M3926 1225 c-9 -26 -7 -32 5 -12 6 10 9 21 6 23 -2 3 -7 -2 -11 -11z"/>
<path d="M5905 1220 c-3 -5 -1 -10 4 -10 6 0 11 5 11 10 0 6 -2 10 -4 10 -3 0
-8 -4 -11 -10z"/>
<path d="M6043 1192 c0 -21 2 -28 4 -17 3 11 9 25 14 31 6 8 5 14 -4 17 -10 4
-14 -5 -14 -31z"/>
<path d="M6090 1220 c0 -5 5 -10 10 -10 6 0 10 5 10 10 0 6 -4 10 -10 10 -5 0
-10 -4 -10 -10z"/>
<path d="M6130 1220 c0 -5 7 -10 15 -10 11 0 15 -12 16 -42 l2 -43 6 35 c5 24
3 40 -8 53 -16 19 -31 22 -31 7z"/>
<path d="M4020 1210 c0 -5 5 -10 10 -10 6 0 10 5 10 10 0 6 -4 10 -10 10 -5 0
-10 -4 -10 -10z"/>
<path d="M5955 1195 c-3 -8 -7 -22 -10 -30 -2 -8 0 -15 5 -15 6 0 10 11 10 24
0 15 7 26 18 29 16 4 16 5 -1 6 -10 0 -20 -6 -22 -14z"/>
<path d="M5921 1184 c0 -11 3 -14 6 -6 3 7 2 16 -1 19 -3 4 -6 -2 -5 -13z"/>
<path d="M6005 1190 c3 -5 8 -10 11 -10 2 0 4 5 4 10 0 6 -5 10 -11 10 -5 0
-7 -4 -4 -10z"/>
<path d="M6071 1178 c0 -16 2 -18 6 -8 3 8 11 18 17 22 7 5 4 8 -6 8 -12 0
-18 -7 -17 -22z"/>
<path d="M6235 1171 c0 -19 -6 -27 -22 -29 -13 -2 -23 -8 -23 -13 0 -6 9 -7
21 -4 14 5 25 2 30 -6 6 -10 9 -6 9 13 0 14 3 33 6 41 3 8 -1 17 -8 20 -9 3
-14 -4 -13 -22z"/>
<path d="M7570 1192 c0 -5 4 -12 9 -17 9 -11 85 -236 117 -347 10 -38 21 -68
24 -68 10 0 40 121 40 162 0 24 -9 62 -20 86 -10 23 -22 57 -25 75 -5 28 -18
40 -76 75 -38 23 -69 38 -69 34z"/>
<path d="M5685 1180 c-3 -5 3 -10 15 -10 12 0 18 5 15 10 -3 6 -10 10 -15 10
-5 0 -12 -4 -15 -10z"/>
<path d="M5745 1180 c-3 -5 -1 -10 4 -10 6 0 11 5 11 10 0 6 -2 10 -4 10 -3 0
-8 -4 -11 -10z"/>
<path d="M5405 1170 c-3 -5 -1 -10 4 -10 6 0 11 5 11 10 0 6 -2 10 -4 10 -3 0
-8 -4 -11 -10z"/>
<path d="M5885 1170 c-3 -5 1 -10 10 -10 9 0 13 5 10 10 -3 6 -8 10 -10 10 -2
0 -7 -4 -10 -10z"/>
<path d="M6128 1174 c-7 -7 2 -44 11 -44 3 0 7 11 7 25 2 24 -6 32 -18 19z"/>
<path d="M6190 1170 c0 -5 7 -10 15 -10 8 0 15 5 15 10 0 6 -7 10 -15 10 -8 0
-15 -4 -15 -10z"/>
<path d="M6012 1150 c0 -14 2 -19 5 -12 2 6 2 18 0 25 -3 6 -5 1 -5 -13z"/>
<path d="M5975 1150 c3 -5 8 -10 11 -10 2 0 4 5 4 10 0 6 -5 10 -11 10 -5 0
-7 -4 -4 -10z"/>
<path d="M5418 1133 c7 -3 16 -2 19 1 4 3 -2 6 -13 5 -11 0 -14 -3 -6 -6z"/>
<path d="M6076 1124 c-10 -25 -1 -27 19 -4 15 17 16 20 3 20 -9 0 -19 -7 -22
-16z"/>
<path d="M5751 1121 c-10 -7 -7 -9 12 -8 14 1 23 5 20 10 -6 9 -15 9 -32 -2z"/>
<path d="M5920 1119 c0 -5 11 -9 25 -9 14 0 25 2 25 4 0 2 -11 6 -25 8 -14 3
-25 1 -25 -3z"/>
<path d="M6052 1100 c0 -19 2 -27 5 -17 2 9 2 25 0 35 -3 9 -5 1 -5 -18z"/>
<path d="M6123 1113 c9 -2 23 -2 30 0 6 3 -1 5 -18 5 -16 0 -22 -2 -12 -5z"/>
<path d="M6022 1090 c0 -14 2 -19 5 -12 2 6 2 18 0 25 -3 6 -5 1 -5 -13z"/>
<path d="M5768 1083 c-10 -2 -18 -12 -18 -21 0 -11 3 -13 8 -6 4 6 16 16 27
22 20 12 14 13 -17 5z"/>
<path d="M6002 1060 c0 -14 2 -19 5 -12 2 6 2 18 0 25 -3 6 -5 1 -5 -13z"/>
<path d="M6685 1060 c-3 -5 -1 -10 4 -10 6 0 11 5 11 10 0 6 -2 10 -4 10 -3 0
-8 -4 -11 -10z"/>
<path d="M6080 1038 c0 -4 6 -8 14 -8 8 0 17 4 20 8 2 4 -4 8 -15 8 -10 0 -19
-4 -19 -8z"/>
<path d="M5737 1009 c-9 -5 -22 -7 -29 -3 -7 4 -8 3 -4 -4 10 -17 43 -15 50 3
6 18 6 18 -17 4z"/>
<path d="M5420 999 c0 -5 5 -7 10 -4 6 3 10 8 10 11 0 2 -4 4 -10 4 -5 0 -10
-5 -10 -11z"/>
<path d="M6148 993 c7 -3 16 -2 19 1 4 3 -2 6 -13 5 -11 0 -14 -3 -6 -6z"/>
<path d="M6055 980 c-19 -8 -19 -9 3 -9 12 -1 22 4 22 9 0 6 -1 10 -2 9 -2 0
-12 -4 -23 -9z"/>
<path d="M6240 980 c0 -5 5 -10 10 -10 6 0 10 5 10 10 0 6 -4 10 -10 10 -5 0
-10 -4 -10 -10z"/>
<path d="M5715 960 c-16 -7 -17 -9 -3 -9 9 -1 20 4 23 9 7 11 7 11 -20 0z"/>
<path d="M6076 945 c-3 -8 -1 -15 4 -15 6 0 10 7 10 15 0 8 -2 15 -4 15 -2 0
-6 -7 -10 -15z"/>
<path d="M6586 951 c-3 -5 1 -11 9 -14 9 -4 12 -1 8 9 -6 16 -10 17 -17 5z"/>
<path d="M6000 946 c0 -2 7 -6 15 -10 8 -3 15 -1 15 4 0 6 -7 10 -15 10 -8 0
-15 -2 -15 -4z"/>
<path d="M6162 930 c0 -14 2 -19 5 -12 2 6 2 18 0 25 -3 6 -5 1 -5 -13z"/>
<path d="M3712 920 c0 -14 2 -19 5 -12 2 6 2 18 0 25 -3 6 -5 1 -5 -13z"/>
<path d="M5745 930 c3 -5 11 -10 16 -10 6 0 7 5 4 10 -3 6 -11 10 -16 10 -6 0
-7 -4 -4 -10z"/>
<path d="M5760 889 c0 -5 5 -7 10 -4 6 3 10 8 10 11 0 2 -4 4 -10 4 -5 0 -10
-5 -10 -11z"/>
<path d="M5805 890 c3 -5 15 -10 26 -10 11 0 17 5 14 10 -3 6 -15 10 -26 10
-11 0 -17 -4 -14 -10z"/>
<path d="M5896 884 c-4 -9 -4 -19 -1 -22 2 -3 7 3 11 12 4 9 4 19 1 22 -2 3
-7 -3 -11 -12z"/>
<path d="M6101 891 c-1 -10 -10 -12 -32 -7 -29 5 -29 5 -13 -12 16 -16 16 -17
1 -20 -21 -4 -21 -4 4 -47 16 -27 26 -34 40 -30 10 4 33 7 50 7 17 1 25 4 18
8 -6 4 -19 5 -29 3 -46 -12 -80 45 -44 72 9 6 14 18 11 26 -4 11 -6 12 -6 0z"/>
<path d="M5435 871 c3 -5 -3 -12 -12 -14 -10 -3 -5 -4 11 -3 34 3 48 26 16 26
-12 0 -19 -4 -15 -9z"/>
<path d="M5730 858 c0 -19 2 -20 10 -8 13 19 13 30 0 30 -5 0 -10 -10 -10 -22z"/>
<path d="M5981 864 c0 -11 3 -14 6 -6 3 7 2 16 -1 19 -3 4 -6 -2 -5 -13z"/>
<path d="M5765 860 c3 -5 12 -7 20 -3 21 7 19 13 -6 13 -11 0 -18 -4 -14 -10z"/>
<path d="M5840 850 c0 -5 -7 -10 -15 -10 -8 0 -15 -5 -15 -10 0 -7 6 -7 20 0
18 10 28 30 15 30 -3 0 -5 -4 -5 -10z"/>
<path d="M6115 850 c3 -5 10 -10 16 -10 5 0 9 5 9 10 0 6 -7 10 -16 10 -8 0
-12 -4 -9 -10z"/>
<path d="M6470 836 c0 -10 -3 -15 -8 -12 -4 2 -16 -2 -27 -10 -10 -8 -14 -14
-8 -14 7 0 13 -7 15 -16 2 -11 12 -5 38 23 19 21 31 34 26 30 -5 -4 -15 -2
-23 4 -10 9 -13 8 -13 -5z"/>
<path d="M5991 814 c0 -11 3 -14 6 -6 3 7 2 16 -1 19 -3 4 -6 -2 -5 -13z"/>
<path d="M3685 789 c-4 -6 -5 -12 -2 -15 2 -3 7 2 10 11 7 17 1 20 -8 4z"/>
<path d="M6325 790 c-19 -8 -19 -9 3 -9 12 -1 22 4 22 9 0 6 -1 10 -2 9 -2 0
-12 -4 -23 -9z"/>
<path d="M6280 779 c0 -5 5 -7 10 -4 6 3 10 8 10 11 0 2 -4 4 -10 4 -5 0 -10
-5 -10 -11z"/>
<path d="M6410 764 c0 -8 5 -12 10 -9 6 4 8 11 5 16 -9 14 -15 11 -15 -7z"/>
<path d="M5908 753 c6 -3 10 -8 7 -12 -2 -5 7 -6 20 -3 35 6 31 17 -8 18 -17
1 -26 -1 -19 -3z"/>
<path d="M5731 734 c0 -11 3 -14 6 -6 3 7 2 16 -1 19 -3 4 -6 -2 -5 -13z"/>
<path d="M5750 735 c0 -16 16 -20 24 -6 3 5 -1 11 -9 15 -9 3 -15 0 -15 -9z"/>
<path d="M4053 693 c3 -5 65 -11 137 -12 72 -1 139 -4 149 -6 11 -2 135 -7
277 -10 143 -4 287 -8 322 -9 34 -1 62 1 62 4 0 4 -129 10 -287 14 -159 3
-304 8 -323 10 -92 11 -342 17 -337 9z"/>
<path d="M5440 690 c0 -5 5 -10 10 -10 6 0 10 5 10 10 0 6 -4 10 -10 10 -5 0
-10 -4 -10 -10z"/>
<path d="M5753 683 c9 -2 25 -2 35 0 9 3 1 5 -18 5 -19 0 -27 -2 -17 -5z"/>
<path d="M5010 661 c0 -5 44 -9 98 -9 83 0 90 1 47 8 -69 11 -145 12 -145 1z"/>
<path d="M3591 576 c-9 -11 -8 -15 5 -20 9 -4 19 -4 22 -1 3 3 -1 5 -9 5 -12
0 -12 2 0 9 8 5 9 11 3 15 -5 3 -15 0 -21 -8z"/>
<path d="M3608 503 c6 -2 18 -2 25 0 6 3 1 5 -13 5 -14 0 -19 -2 -12 -5z"/>
<path d="M3596 481 c-4 -7 -5 -15 -2 -18 9 -9 19 4 14 18 -4 11 -6 11 -12 0z"/>
<path d="M3593 422 c1 -14 5 -18 11 -12 7 7 6 14 -1 21 -9 9 -12 7 -10 -9z"/>
<path d="M5462 359 c8 -28 13 -37 19 -27 12 17 11 41 0 34 -5 -4 -7 3 -4 14 4
13 0 20 -10 20 -12 0 -13 -7 -5 -41z"/>
<path d="M5490 331 c0 -5 7 -12 16 -15 14 -5 15 -4 4 9 -14 17 -20 19 -20 6z"/>
<path d="M5430 299 c0 -5 5 -7 10 -4 6 3 10 8 10 11 0 2 -4 4 -10 4 -5 0 -10
-5 -10 -11z"/>
<path d="M7750 230 c0 -36 -3 -102 -7 -147 l-6 -83 31 0 31 0 -5 88 c-7 129
-13 167 -29 188 -13 17 -14 12 -15 -46z m17 -32 c-2 -13 -4 -5 -4 17 -1 22 1
32 4 23 2 -10 2 -28 0 -40z"/>
<path d="M3351 204 c0 -11 3 -14 6 -6 3 7 2 16 -1 19 -3 4 -6 -2 -5 -13z"/>
<path d="M3575 190 c3 -5 15 -10 26 -10 10 0 19 5 19 10 0 6 -12 10 -26 10
-14 0 -23 -4 -19 -10z"/>
<path d="M3355 148 c-2 -7 -5 -43 -7 -81 -2 -50 0 -67 10 -67 10 0 13 19 11
80 -3 79 -6 92 -14 68z"/>
<path d="M3690 140 c0 -5 5 -10 11 -10 5 0 7 5 4 10 -3 6 -8 10 -11 10 -2 0
-4 -4 -4 -10z"/>
<path d="M3542 110 c0 -14 2 -19 5 -12 2 6 2 18 0 25 -3 6 -5 1 -5 -13z"/>
<path d="M3561 103 c0 -25 1 -26 9 -8 l9 20 2 -20 c3 -28 5 -38 12 -55 3 -8 8
-22 11 -30 3 -8 5 8 4 35 -1 28 -6 58 -12 68 -16 26 -36 21 -35 -10z"/>
<path d="M4539 77 c5 -5 26 -7 47 -5 l39 3 -47 5 c-26 3 -43 1 -39 -3z"/>
<path d="M4668 73 c7 -3 16 -2 19 1 4 3 -2 6 -13 5 -11 0 -14 -3 -6 -6z"/>
<path d="M4983 63 c15 -2 37 -2 50 0 12 2 0 4 -28 4 -27 0 -38 -2 -22 -4z"/>
<path d="M5178 63 c6 -2 18 -2 25 0 6 3 1 5 -13 5 -14 0 -19 -2 -12 -5z"/>
<path d="M4541 44 c0 -11 3 -14 6 -6 3 7 2 16 -1 19 -3 4 -6 -2 -5 -13z"/>
<path d="M3530 30 c0 -5 5 -10 11 -10 5 0 7 5 4 10 -3 6 -8 10 -11 10 -2 0 -4
-4 -4 -10z"/>
<path d="M3391 14 c0 -11 3 -14 6 -6 3 7 2 16 -1 19 -3 4 -6 -2 -5 -13z"/>
</g>
</svg>
